<?xml version="1.0" encoding="UTF-8"?>
<!DOCTYPE svg PUBLIC "-//W3C//DTD SVG 1.1//EN" "http://www.w3.org/Graphics/SVG/1.1/DTD/svg11.dtd">
<!-- Creator: CorelDRAW -->
<svg xmlns="http://www.w3.org/2000/svg" xml:space="preserve" width="150mm" height="150mm" version="1.1" style="shape-rendering:geometricPrecision; text-rendering:geometricPrecision; image-rendering:optimizeQuality; fill-rule:evenodd; clip-rule:evenodd"
viewBox="0 0 15000 15000"
 xmlns:xlink="http://www.w3.org/1999/xlink"
 xmlns:xodm="http://www.corel.com/coreldraw/odm/2003">
 <defs>
  <style type="text/css">
   <![CDATA[
    .str0 {stroke:#373535;stroke-width:7.62;stroke-miterlimit:22.9256}
    .fil10 {fill:#373535}
    .fil9 {fill:#201F1F}
    .fil8 {fill:#17519C}
    .fil3 {fill:#CCCCCC}
    .fil11 {fill:#373535;fill-rule:nonzero}
    .fil2 {fill:#5CA47B;fill-rule:nonzero}
    .fil6 {fill:#507A62;fill-rule:nonzero}
    .fil1 {fill:#61CCF2;fill-rule:nonzero}
    .fil7 {fill:#999999;fill-rule:nonzero}
    .fil0 {fill:#B3B3B3;fill-rule:nonzero}
    .fil5 {fill:#CCCCCC;fill-rule:nonzero}
    .fil4 {fill:#E6E6E6;fill-rule:nonzero}
   ]]>
  </style>
 </defs>
 <g id="Capa_x0020_1">
  <metadata id="CorelCorpID_0Corel-Layer"/>
  <g id="_105553431834816">
   <path class="fil0" d="M9842.84 11911.94c-213.09,151.46 -438.23,287.21 -673.35,405.7l-368.18 -1725.37 -1853.41 0 -484.84 2272.74c-251.29,-16.37 -497.8,-50.49 -738.4,-101.2l1017.9 -4771.99 75.72 -355.22 29.1 -136.22 18.19 3.87 406.85 86.87 301.99 64.35 -58.2 272.9 -50.94 238.77 -88.46 414.57 -270.4 1267.13 1536.39 0 -271.31 -1271.91 -88.45 -414.34 -51.62 -241.28 -56.63 -265.85 289.26 -61.62 407.07 -86.87 30.71 -6.59 101.42 475.52 839.59 3936.04z"/>
   <path class="fil1" d="M10091.52 3541.94c533.04,-221.63 1217.43,205.46 1528.63,953.91 311.05,748.12 131.24,1534.53 -401.79,1756.16l-1126.84 -2710.07z"/>
   <path class="fil2" d="M11755.57 6028.61l-537.15 223.31 -972.85 404.58 -157.83 -379.55 -811.18 -1950.95 -157.58 -379.1c-0.23,-0.22 -0.23,-0.45 -0.23,-0.45l972.86 -404.57 17.96 -7.27 519.17 -216.04 95.28 229.23 66.85 160.78 802.54 1930.05 66.85 160.78 95.31 229.2z"/>
   <rect class="fil3" transform="matrix(0.907179 -3.7651E-001 0.456582 1.10011 6335.53 7238.83)" width="2985.5" height="463.7"/>
   <path class="fil4" d="M10087.76 6276.93l-242.43 100.75 -1008.8 419.56c-63.23,-152.13 -161.9,-289.03 -290.41,-397.73l-1.03 -0.87 -1723.57 745.07 -0.1 1.93c-0.9,17.96 -1.37,36.15 -1.37,54.12 0,11.6 0.23,23.44 0.68,35.03 0.44,14.32 1.14,28.66 2.27,42.97 0.9,11.59 2.05,23.43 3.42,35.02 0,2.27 0.23,4.55 0.68,6.82 1.37,11.59 2.73,23.21 4.54,34.57l0 0.69c1.83,12.04 3.88,23.87 6.15,35.69 2.49,13.64 5.22,26.83 8.19,40.25 2.73,12.04 5.69,24.1 8.87,35.92 0,0.46 0.22,0.69 0.45,0.91 2.49,10.24 5.45,20.46 8.64,30.7 0,0.44 0,0.68 0.23,1.14 0.44,1.61 0.89,3.18 1.36,4.79 0.23,0.44 0.23,0.89 0.45,1.36 2.5,8.2 5,16.14 7.74,24.34 2.95,9.31 6.37,18.63 9.77,27.97 2.27,6.37 4.78,12.74 7.27,19.1 3.17,8.65 6.59,16.84 10.02,25.23l-82.55 34.36 -2143.11 890.99 -177.15 -425.95 -457.09 -1099.3 -82.78 -198.98 -94.16 -226.06c-0.23,-0.67 -0.23,-0.9 -0.23,-0.9l5373.3 -2234.06 39.57 -16.36 377.65 908.26 60.25 -26.05 246.34 578.43 -65.2 28.19 192.14 462.1z"/>
   <path class="fil2" d="M8510.92 6932.66c-68.36,-164.48 -199.34,-302.56 -376.81,-375.9 -355.22,-146.52 -761.91,22.49 -908.28,377.71 -35.92,86.91 -52.96,176.86 -52.96,265.28 0,7.69 0.14,15.55 0.45,23.24 0.29,9.51 0.76,19.02 1.5,28.52 0.6,7.84 1.36,15.55 2.27,23.24 0,1.51 0.15,3.01 0.45,4.53 0.91,7.69 1.81,15.39 3.02,22.94l0 0.45c1.21,7.99 2.57,15.84 4.07,23.68 1.66,9.05 3.47,17.81 5.44,26.71 1.81,7.99 3.78,15.99 5.89,23.84 0,0.3 0.15,0.45 0.3,0.6 1.8,6.79 3.61,13.72 5.73,20.37 0,0.3 0,0.45 0.15,0.76 0.29,1.07 0.6,2.11 0.91,3.17 0.15,0.3 0.15,0.6 0.29,0.91 1.66,5.44 3.32,10.71 5.14,16.14 1.96,6.19 4.23,12.37 6.48,18.57 1.51,4.23 3.17,8.45 4.82,12.68 2.11,5.73 4.38,11.17 6.65,16.74 68.07,163.58 198.13,301.35 374.54,374.84 0.91,0.3 1.66,0.76 2.57,1.06 180.32,74.4 373.94,67.45 540.08,-4.08 161.01,-69.1 296.06,-198.74 368.2,-373.62 8.3,-20.38 15.7,-40.75 22.03,-61.42 49.05,-159.2 37.74,-325.33 -22.93,-470.96zm-957.78 398.23c-72.44,-174.14 10.11,-374.24 184.4,-446.67 174.14,-72.43 374.24,10.12 446.67,184.41 72.44,174.14 -10.12,374.24 -184.4,446.66 -174.13,72.44 -374.23,-10.1 -446.67,-184.4z"/>
   <path class="fil4" d="M7670.99 6724.27c262.53,-109.16 564.02,15.27 673.15,277.75 109.14,262.52 -15.26,564.03 -277.75,673.15 -262.54,109.17 -564.02,-15.26 -673.15,-277.75 -109.19,-262.49 15.24,-563.98 277.75,-673.15z"/>
   <path class="fil5" d="M8344.16 7002.04c-102.51,-246.54 -374.65,-371.23 -624.86,-295.08 142.23,43.16 264.75,147.21 326.26,295.08 109.14,262.52 -15.27,564.03 -277.75,673.15 -15.96,6.64 -32.1,12.39 -48.3,17.33 110.24,33.45 232.31,30.34 346.94,-17.33 262.43,-109.12 386.85,-410.63 277.71,-673.15z"/>
   <path class="fil2" d="M4497.99 8101.68l-1471.34 611.72 -456.41 -1097.93c-0.44,-0.91 -0.67,-1.37 -0.67,-1.37l1471.33 -611.73 378.87 911.01 78.22 188.3z"/>
   <polygon class="fil4" points="2569.63,7614.12 3026.74,8713.49 3128.8,8958.96 2679.14,9145.93 2017.89,7555.6 2467.55,7368.65 "/>
   <polygon class="fil5" points="2943.93,8514.35 3095.05,8877.79 3128.8,8958.96 2679.14,9145.93 2460.53,8620.15 2910.2,8433.18 "/>
   <path class="fil6" d="M11218.44 6251.92l-972.85 404.58 -157.83 -379.55 -811.18 -1950.95 -157.58 -379.1c17.26,32.51 1124.07,2124.46 2099.44,2305.02z"/>
   <path class="fil5" d="M6890.8 7577.04c3.18,8.64 6.59,16.84 10.02,25.23l-82.54 34.35 -2143.12 890.99 -177.15 -425.94 -457.09 -1099.31 -82.78 -198.98c193.75,401.84 697.46,1165.94 1625.52,835.96 300.18,-106.65 741.58,-284.94 1237.79,-493.71 -0.9,17.96 -1.37,36.15 -1.37,54.13 0,11.6 0.22,23.44 0.68,35.03 0.45,14.32 1.14,28.66 2.27,42.97 0.9,11.59 2.05,23.43 3.42,35.02 0,2.27 0.22,4.55 0.68,6.82 1.37,11.6 2.72,23.21 4.54,34.58l0 0.67c1.83,12.05 3.87,23.89 6.15,35.7 2.49,13.64 5.22,26.83 8.19,40.25 2.73,12.04 5.69,24.1 8.87,35.92 0,0.45 0.22,0.68 0.45,0.91 2.49,10.24 5.44,20.46 8.64,30.7 0,0.45 0,0.68 0.22,1.15 0.45,1.6 0.91,3.17 1.37,4.77 0.23,0.45 0.23,0.9 0.45,1.37 2.5,8.2 5,16.15 7.74,24.33 2.95,9.32 6.37,18.64 9.77,27.98 2.28,6.38 4.79,12.74 7.28,19.11z"/>
   <path class="fil6" d="M4497.99 8101.68l-1471.34 611.72 -456.41 -1097.93c20.47,39.12 470.29,861.43 1849.54,297.9l78.21 188.31z"/>
   <path class="fil5" d="M10087.76 6276.93l-242.43 100.75 -1008.8 419.57c-63.23,-152.14 -161.9,-289.04 -290.41,-397.74 518.72,-229 996.52,-442.77 1343.54,-599.01l198.1 476.43z"/>
   <path class="fil7" d="M8901.81 7500.4l-30.71 6.59 -407.07 86.87c-38.67,129.63 -119.17,246.06 -232.65,327.48l51.61 241.27 88.46 414.35c267.21,-115.29 495.08,-322.69 631.76,-601.06l-101.4 -475.5zm-1606.88 154.87c-8.88,-21.16 -16.37,-42.52 -22.51,-64.13l-406.85 -86.87 -18.19 -3.87 -29.1 136.22 -75.72 355.22c130.53,256.28 348.84,469.38 634.25,589.91l88.46 -414.57 50.94 -238.77c-95.3,-65.5 -173.54,-158.53 -221.28,-273.14z"/>
   <g>
    <path class="fil8" d="M8546.4 6009.35l93.72 -37.86 -127.71 -316.7c0.44,0.11 0.92,-0.12 1.33,0.41 0.41,0.52 1,0.3 1.31,0.43 1.73,0.71 1.33,0.41 3.33,1.52l13.87 9.4c6.32,4.25 12,8.42 18.17,12.53 30.51,20.32 250.33,170.33 262.19,176.39l5.41 -21.46c1.42,-7.86 2.84,-14.31 4.56,-22.68l55.57 -265.09c1.55,-7.26 2.92,-13.68 4.59,-21.55 1.27,-6.04 3.15,-17.97 5.59,-22.52l128.21 317.02 94.31 -37.83 -252.52 -626.63c-3.83,6.06 -53.96,252.22 -56.94,266.07 -2.93,13.66 -53.68,260.91 -56.77,266.39 -9.05,-4.35 -19.89,-13.01 -27.59,-18.36l-394.57 -267.16c-9.02,-6.17 -19.43,-15.68 -29.09,-18.97l253.03 626.65z"/>
    <path class="fil8" d="M7659.17 6268.67l-65.46 -161.22c17.94,-14.04 36.94,-26.98 54.79,-41.57 8.29,-6.78 43.93,-42.62 48.13,-43.54 14.23,-3.12 51.27,8.44 59.64,12.26 15.99,7.3 34.22,19.53 47.66,40.28 32.16,49.63 19.95,90.39 -12,121.23 -31.85,30.74 -86.82,57.74 -132.76,72.56zm-101.02 -249.35l-73.33 -181.43c37.85,-17.91 126.98,-54.86 163.24,-25.54 13.46,10.89 23.53,31.94 25.19,50.29 2.87,31.74 -18.31,64.16 -37.1,87.18 -13.26,16.24 -57.02,59.37 -78,69.5zm41.3 372.67c48.98,-19.71 151.03,-58.77 191.59,-82.08 72.1,-41.44 131.73,-107.94 122.11,-194.35 -9.04,-81.13 -64.72,-149.31 -142.34,-173.25l-14.09 -3.72c-0.42,-0.12 -1.64,-0.51 -2.04,-0.66 -2.27,-0.84 -1.18,-0.29 -3.03,-1.37l8.73 -29.11c18.14,-86.27 -26.76,-170.33 -104.78,-191.97 -87.39,-24.26 -210.81,40.45 -298.51,75.91l242.36 600.6z"/>
    <path class="fil8" d="M9122.1 5176.21l266.21 -107.69 -34.1 -84.01 -359.82 145.71 242.66 599.94 359.6 -145.29 -34.06 -84.96 -265.94 107.4c-12.32,-25.98 -60.4,-147.4 -73.31,-180.52l-2.04 -5.44 219.17 -88.59c-8.54,-21.87 -25.59,-66.08 -34.61,-84.89l-219.03 88.44 -64.73 -160.1z"/>
    <path class="fil8" d="M7960.68 5645.46l266.16 -107.7 -34 -83.84 -359.92 145.44 242.77 600.11 359.53 -145.4 -34.08 -84.91 -265.88 107.4c-11.49,-23.9 -60.83,-148.6 -73.34,-180.52l-2.06 -5.43 219.14 -88.7 -34.54 -84.8 -219.05 88.47 -64.73 -160.12z"/>
    <path class="fil8" d="M7008.6 6096.57c-90.18,50.32 -135.86,169.27 -77.41,273.88 50.31,90.04 170.68,135.61 275.13,76.11 88.41,-50.36 133.57,-168.95 75.73,-272.65 -50.1,-89.8 -169.19,-135.53 -273.45,-77.34z"/>
    <g>
     <path class="fil9 str0" d="M6609.83 6176c10.66,-0.56 14.67,-6.75 23.5,-12.2 -29.41,-62.48 -145.53,-201.88 -184.87,-286.67 -9.09,-19.59 -11.58,-37.47 -5.65,-53.57 4.64,-12.59 15.8,-29.62 34.5,-37.11 1.82,1.36 8.63,13.72 31.61,8.15 17.3,-4.18 23.37,-3.57 39.41,-12.69 -1.12,-8.15 -14.4,-55.91 -24.21,-57.68 -15.82,-2.84 -40.28,17.68 -49.96,27.58 -38.56,39.42 -95.56,58.24 -38.61,159.99 25.5,45.54 57.47,90.63 86.85,133.03 12.12,17.49 81.89,125.93 87.43,131.17z"/>
     <g>
      <path class="fil9 str0" d="M7129.05 5982.29c5.19,1.75 11.37,2.12 17.13,3.03 38.58,6.1 79.87,23.05 112.42,46.14 138.06,97.98 151.7,287.36 51.63,403.22 -74.93,86.75 -193.59,115.45 -288.14,85.61 -68.97,-21.76 -129.49,-65.7 -166.25,-137.31 -11.7,-22.79 -29.7,-65.52 -37.28,-89.81 33.63,-13.54 60.59,-43.04 68.91,-76.05 3.82,-15.19 3.6,-33.71 1.44,-51.95 -1.43,-12.06 -6.68,-49.61 -12.27,-58.9l-39.52 6.42c-1.61,53.36 43.84,108.78 -46.73,145.4 -34.38,13.9 -59.88,14.01 -82.3,0.26 -20.39,-12.5 -41.18,-43.48 -53.25,-69.86l-37.44 21.38c11.81,30.91 49.95,74.21 71.28,86.28 14.9,8.44 28.08,14.35 48.81,14.27 17.47,-0.07 40.22,-2.48 57.82,-7.45 24.07,53.32 33.55,93.81 69.51,139.64 76.33,97.29 216.37,145.42 348.24,91.86 136.72,-55.53 200.74,-192.79 184.92,-315.41 -14.22,-110.25 -84.19,-195.95 -178.4,-238 -21.43,-9.56 -58.93,-20.8 -88.19,-22.68 -1.39,5.78 -2.66,17.26 -2.34,23.91z"/>
      <path class="fil10 str0" d="M6623.7 5748.81c17.66,0.92 21.72,-5.64 37.04,-16.17 15.88,-10.91 21.34,-11.65 19.91,-29.93 40.14,-10.4 70.32,-1.88 86.12,39.48 12.75,33.39 20.95,79.87 26.98,113.85 6.6,37.21 13.27,74.28 19.1,111.2 3.75,23.73 13.12,94.41 22.15,113.43 2.68,0.58 16.87,0.17 17.5,0.01 9.46,-2.35 7.59,-8.45 6.3,-15.49 -17.84,-97.07 -32.36,-189.16 -54.3,-287.02 -8.15,-36.33 -12.83,-49.97 -32.22,-81.7 -6.27,-10.26 -1.36,-0.7 -14.91,-10.32 -12.86,-9.13 -34.57,-12.94 -51.12,-14.03 -16.61,-1.09 -25.45,5.58 -39.3,5.54 -81.55,-0.25 -69.85,16.9 -43.25,71.15z"/>
      <path class="fil9 str0" d="M6962.41 5938.7c30.27,-18.04 65.78,-4.96 81,20.24 18.5,30.62 5.46,66.88 -20.32,82.06 -31.2,18.38 -66.79,5.26 -81.84,-20.87 -17.85,-30.98 -4.84,-65.94 21.16,-81.43zm-12.59 -21.29c-36.73,21.75 -55.79,71.76 -29.85,115.45 21.75,36.63 71.46,55.28 115.12,29.87 36.88,-21.47 55.75,-71.99 29.95,-115.84 -21.38,-36.37 -71.76,-55.23 -115.22,-29.48z"/>
      <path class="fil9 str0" d="M6962.22 6010.22c9.64,14.96 31.44,21.86 50.21,10.23 15.49,-9.59 22.92,-31.29 10.8,-50.62 -24.82,-39.58 -88.39,-2.11 -61.01,40.39z"/>
     </g>
    </g>
    <path class="fil9 str0" d="M7088.1 5937.14c-6.06,6.39 -4.92,9.81 -3.61,20.1 0.97,7.59 1.84,14.95 2.79,22.4 0.96,7.55 0.62,16.07 6.21,21.66 4.29,4.29 13.18,6.45 20.53,-0.15 8.51,-7.65 2.49,-29.34 1.01,-42.18 -0.83,-7.13 -0.99,-17.12 -6.26,-22.38 -4.75,-4.75 -14.3,-6.17 -20.67,0.55z"/>
   </g>
   <polygon class="fil11" points="4416.43,6959.39 4316.51,6999.76 4826.37,7497.54 4830.18,6792.22 4731.82,6831.96 4733.82,7275.21 "/>
   <polygon id="1" class="fil11" points="5033.94,6804.34 5290.78,6700.57 5257.98,6619.38 5000.36,6723.47 4910.58,6759.74 5144.61,7338.99 5234.39,7302.72 5492.01,7198.63 5458.89,7116.66 5202.05,7220.43 5129.51,7040.88 5341.07,6955.4 5307.95,6873.43 5096.39,6958.91 "/>
   <polygon id="2" class="fil11" points="6143.87,6935.26 5899.11,6329.47 5790.67,6845.5 5354.2,6549.63 5598.96,7155.42 5689.52,7118.83 5565.25,6811.25 5856.27,7007.87 5928.26,6664.58 6052.53,6972.17 "/>
   <polygon id="3" class="fil11" points="6154.19,6351.73 6411.03,6247.96 6378.23,6166.77 6120.61,6270.86 6030.83,6307.13 6264.86,6886.38 6354.64,6850.1 6612.26,6746.02 6579.14,6664.05 6322.3,6767.82 6249.76,6588.27 6461.32,6502.79 6428.21,6420.82 6216.64,6506.3 "/>
  </g>
 </g>
</svg>
