<?xml version="1.0" encoding="UTF-8"?>
<!DOCTYPE svg PUBLIC "-//W3C//DTD SVG 1.1//EN" "http://www.w3.org/Graphics/SVG/1.1/DTD/svg11.dtd">
<!-- Creator: CorelDRAW -->
<svg xmlns="http://www.w3.org/2000/svg" xml:space="preserve" width="80mm" height="80mm" version="1.1" style="shape-rendering:geometricPrecision; text-rendering:geometricPrecision; image-rendering:optimizeQuality; fill-rule:evenodd; clip-rule:evenodd"
viewBox="0 0 8000 8000"
 xmlns:xlink="http://www.w3.org/1999/xlink"
 xmlns:xodm="http://www.corel.com/coreldraw/odm/2003">
 <defs>
  <style type="text/css">
   <![CDATA[
    .str0 {stroke:black;stroke-width:20;stroke-miterlimit:22.9256}
    .fil8 {fill:black}
    .fil1 {fill:#1A1A1A}
    .fil6 {fill:#269A96}
    .fil4 {fill:#2C948B}
    .fil5 {fill:#34A79A}
    .fil7 {fill:#4BC6EF}
    .fil3 {fill:#CC9933}
    .fil9 {fill:#FF6600}
    .fil2 {fill:yellow}
    .fil0 {fill:white}
   ]]>
  </style>
 </defs>
 <g id="Capa_x0020_1">
  <metadata id="CorelCorpID_0Corel-Layer"/>
  <path class="fil0" d="M1347.21 3302.92c-143.78,100.89 -239.05,29.66 -528.4,253.66 -548.26,424.38 -482.51,1272.57 78.25,1622.56 383.18,239.18 897.38,162.99 1464.11,162.99 519.82,0 2909.62,33.92 3219.8,-23.87 1142.22,-212.78 1417.9,-1810.85 381.63,-2381.84 -273.61,-150.76 -353.79,-106.69 -642.77,-182.2 -88.45,-166.61 -91.28,-770.37 -722.37,-1124.09 -655.4,-367.34 -1506.42,-171.91 -1892.39,519.25 -201.55,360.87 -191.9,61.58 -638.38,58.49 -283.97,-2 -496.55,140.98 -613.37,306.96 -235.11,333.98 -63.31,465.04 -106.11,788.09z"/>
  <path class="fil1" d="M1347.21 3302.92c42.8,-323.05 -129,-454.11 106.11,-788.09 116.82,-165.98 329.4,-308.96 613.37,-306.96 446.48,3.09 436.83,302.38 638.38,-58.49 385.97,-691.16 1236.99,-886.59 1892.39,-519.25 631.09,353.72 633.92,957.48 722.37,1124.09 288.98,75.51 369.16,31.44 642.77,182.2 1036.27,570.99 760.59,2169.06 -381.63,2381.84 -310.18,57.79 -2699.98,23.87 -3219.8,23.87 -566.73,0 -1080.93,76.19 -1464.11,-162.99 -560.76,-349.99 -626.51,-1198.18 -78.25,-1622.56 289.35,-224 384.62,-152.77 528.4,-253.66zm1452.06 -1692c-42.82,73.54 -88.98,113.43 -161.53,204.09 -53.56,66.96 -104.87,125.62 -142.49,208.88 -197.45,-18.87 -272.49,-68.73 -487.09,-66.4 -674.65,83.25 -932.36,509.42 -921.03,1169.13 -46.78,34.58 -184.7,88.29 -250.62,125.7 -604.63,343.22 -824.82,1126.7 -456.57,1732.89 490.96,808.17 1267.02,550.51 2281.24,612.11l-42.13 67.05c107.74,16.86 72.92,-25.05 82.47,76.57 36.3,-64.46 62.78,-78.67 97.36,-146.93l1298.27 1.15c1.32,-70.98 114.61,-20.28 155.71,-9.73 1065.82,81.49 2057.52,71.28 2502.16,-977.96 202.03,-476.76 82.94,-1044.12 -166.17,-1412.05 -222.39,-328.46 -588.68,-578.15 -1075.77,-662.54l-155.7 -473.09c358.43,-206.14 555.29,-345.55 1024.62,-410.53 569.62,-78.86 441.39,59.19 608.44,87.08 348.53,58.21 280.27,-585.14 -121.05,-310.06 -140.85,96.55 -335.96,-12.16 -776.34,104.32 -167.24,44.24 -311.07,96.14 -456.74,165.8 -162.3,77.66 -246.67,173.65 -391.14,204.04 -281.43,-324.62 -544.67,-595.46 -1089.56,-674.3 -280.52,-40.59 -553.19,-19.59 -803.69,70.95 -297.63,107.58 -457.4,285.84 -552.65,313.83z"/>
  <path class="fil2" d="M2701.52 5740.94c-71.71,105.28 -74.86,58.02 -114.07,185.53l736.35 4.36c12.79,227.58 -246.41,811.55 -280.71,1097.4 97.72,-116.66 996.93,-1295.74 1054.06,-1433.07l-1298.27 -1.15c-34.58,68.26 -61.06,82.47 -97.36,146.93z"/>
  <path class="fil3" d="M4097.15 5595.15c-57.13,137.33 -956.34,1316.42 -1054.06,1433.07 34.3,-285.83 293.5,-869.8 280.71,-1097.39l-736.35 -4.37c57.86,-121.95 139.72,-227.18 211.43,-332.45 -76.62,-1.06 -77.97,-7.78 -97.41,-2.08 -6.17,1.81 -31.91,-5.69 -39.51,2.38 -30.18,32.03 -14.22,28.71 -42.91,70.05 -77.54,85.93 -224.75,316.58 -271.65,358.11 178.12,50.24 613.33,12.85 829.06,24.51 -2.37,94.57 -363.9,1387.9 -404.41,1458.24 36.73,85.2 -19.16,74.77 72.38,21.34 17.68,-99.8 89.88,-143.66 180,-269.73l413.61 -556.22c88.38,-109.56 126.14,-178.43 219.89,-295.02 98.62,-124.83 192.62,-265.65 294.38,-396.94 100.24,-129.31 233.84,-281.99 300.55,-423.21 -41.1,-10.57 -154.39,-61.25 -155.71,9.71z"/>
  <path class="fil4" d="M1738.38 1387.94c40.11,51.32 -40.93,7.63 86.23,101.46 223.04,164.58 119.63,197.66 272.56,236 -46.72,-158.63 -172.71,-298.95 -358.79,-337.46z"/>
  <path class="fil5" d="M2655.46 1513.71c74.64,-89.02 30.11,-142.4 62.16,-239.23 23.44,-70.81 51.52,-83.09 77.66,-170.56 -158.24,21.67 -208.89,271.43 -139.82,409.79z"/>
  <path class="fil6" d="M2321.16 1678.61l68.93 -6.89 -103.55 -347.83 -43.1 -87.08c-14.03,23.58 -47.41,-37.58 -21.58,113.12 14.73,85.9 91.85,204.03 99.3,328.68z"/>
  <g id="_105553334666336">
   <g>
    <g>
     <path class="fil7" d="M5310.08 1339.6c-60.7,0 -110.08,49.22 -110.08,109.7 0,60.49 49.38,109.74 110.08,109.74 60.73,0 110.11,-49.25 110.11,-109.74 0,-60.47 -49.39,-109.7 -110.11,-109.7z"/>
    </g>
   </g>
   <g>
    <g>
     <path class="fil7" d="M5578.68 1190.14c-71.67,-71.63 -167.07,-111.1 -268.6,-111.1 -101.13,0 -196.27,39.21 -267.92,110.39 -28.94,28.8 -28.99,75.72 -0.12,104.57 14.02,14.04 32.69,21.75 52.57,21.75 19.78,0 38.38,-7.67 52.39,-21.59 43.6,-43.34 101.52,-67.21 163.09,-67.21 61.79,0 119.87,24.02 163.5,67.62 14.03,14 32.69,21.74 52.54,21.74 19.81,0 38.4,-7.68 52.41,-21.6 28.98,-28.8 29.03,-75.7 0.14,-104.57z"/>
    </g>
   </g>
   <g>
    <g>
     <path class="fil7" d="M5923.72 846.24c-163.86,-163.46 -381.8,-253.45 -613.64,-253.45 -231.52,0 -449.24,89.78 -613.05,252.85 -28.94,28.8 -28.96,75.72 -0.04,104.57 14.01,13.97 32.65,21.66 52.49,21.66 19.82,0 38.44,-7.65 52.46,-21.62 135.78,-135.15 316.24,-209.6 508.14,-209.6 192.19,0 372.83,74.6 508.64,210.11 14.02,13.99 32.69,21.7 52.51,21.7 19.81,0 38.44,-7.69 52.44,-21.64 28.95,-28.82 28.98,-75.76 0.05,-104.58z"/>
    </g>
   </g>
   <g>
    <g>
     <path class="fil7" d="M5746.83 1022.5c-116.64,-116.37 -271.74,-180.45 -436.75,-180.45 -164.7,0 -319.57,63.88 -436.11,179.84 -14.03,13.95 -21.76,32.52 -21.79,52.28 0,19.74 7.7,38.32 21.71,52.3 14.01,13.98 32.67,21.7 52.5,21.7 19.8,0 38.42,-7.7 52.46,-21.62 88.53,-88.08 206.17,-136.6 331.23,-136.6 125.33,0 243.13,48.69 331.72,137.07 14.03,14 32.68,21.72 52.52,21.72 19.81,0 38.44,-7.7 52.44,-21.64 14.01,-13.95 21.76,-32.52 21.77,-52.28 0.02,-19.76 -7.7,-38.33 -21.7,-52.32z"/>
    </g>
   </g>
   <g>
   </g>
   <g>
   </g>
   <g>
   </g>
   <g>
   </g>
   <g>
   </g>
   <g>
   </g>
   <g>
   </g>
   <g>
   </g>
   <g>
   </g>
   <g>
   </g>
   <g>
   </g>
   <g>
   </g>
   <g>
   </g>
   <g>
   </g>
   <g>
   </g>
  </g>
  <circle class="fil8 str0" cx="2884.02" cy="3165.91" r="125.79"/>
  <circle class="fil8 str0" cx="4255.17" cy="3165.91" r="125.79"/>
  <rect class="fil8 str0" x="3370.29" y="4444.1" width="671.69" height="107.56"/>
  <g id="_105553334698560">
   <polygon class="fil0" points="6094.55,3657.6 6574.79,4238.99 6953.5,4955.82 7712.98,6348.06 7528.14,6567.13 6060.38,6552.87 4684.51,6581.52 4460.92,6334.71 5137.2,5007.7 5717.51,4031.85 "/>
   <g>
    <g>
     <g>
      <path class="fil9" d="M7729.39 6071.03l-1306.84 -2263.51c-72.67,-125.86 -202.82,-201.01 -348.17,-201.01 -145.34,0 -275.51,75.15 -348.17,201.01l-1306.83 2263.5c-72.68,125.88 -72.68,276.17 0,402.04 72.67,125.86 202.82,201.01 348.17,201.01l2613.66 0c145.34,0 275.5,-75.15 348.18,-201.01 72.67,-125.87 72.67,-276.16 0,-402.03zm-173.48 301.88c-36.47,63.16 -101.78,100.86 -174.7,100.86l-2613.66 0c-72.94,0 -138.25,-37.7 -174.71,-100.86 -36.46,-63.16 -36.46,-138.56 0,-201.72l1306.85 -2263.51c36.46,-63.16 101.77,-100.86 174.7,-100.86 72.92,0 138.23,37.7 174.69,100.86l1306.84 2263.51c36.45,63.16 36.45,138.56 -0.01,201.72z"/>
     </g>
    </g>
    <g>
     <g>
      <rect class="fil9" x="5974.22" y="4606.13" width="200.31" height="1001.54"/>
     </g>
    </g>
    <g>
     <g>
      <path class="fil9" d="M6074.38 5808c-73.64,0 -133.54,59.9 -133.54,133.54 0,73.64 59.9,133.55 133.54,133.55 73.63,0 133.54,-59.91 133.54,-133.55 0,-73.64 -59.91,-133.54 -133.54,-133.54z"/>
     </g>
    </g>
   </g>
  </g>
 </g>
</svg>
