<svg xmlns="http://www.w3.org/2000/svg" xmlns:xlink="http://www.w3.org/1999/xlink" width="125" height="125" viewBox="0 0 125 125">
  <defs>
    <clipPath id="clip-path">
      <rect id="Rectángulo_1475" data-name="Rectángulo 1475" width="70" height="70" transform="translate(73 359)" fill="#fff" stroke="#707070" stroke-width="1"/>
    </clipPath>
  </defs>
  <g id="Grupo_212" data-name="Grupo 212" transform="translate(-213 -156)">
    <circle id="Elipse_284" data-name="Elipse 284" cx="62.5" cy="62.5" r="62.5" transform="translate(213 156)" fill="#d81159" opacity="0.6"/>
    <g id="Enmascarar_grupo_19" data-name="Enmascarar grupo 19" transform="translate(168 -175)" clip-path="url(#clip-path)">
      <g id="sexual-harassment" transform="translate(73.892 359)">
        <g id="Grupo_42" data-name="Grupo 42" transform="translate(33.154 17.103)">
          <g id="Grupo_41" data-name="Grupo 41">
            <path id="Trazado_2122" data-name="Trazado 2122" d="M66.719,32.486l-8.506-.565-3.972-6.934,4.437,4.5.329.022-1.092-5.97a3.247,3.247,0,0,0-3.109-2.766H49.323a3.242,3.242,0,0,0-3.109,2.766L43.263,39.665l.328.033A4.174,4.174,0,1,1,42.753,48l-1-.1-.387,2.116a1.433,1.433,0,0,0,1.322,1.742h3.2V70.516a3.148,3.148,0,0,0,4.349,2.911,5.017,5.017,0,0,1-.928-2.911V51.762h1.9V70.516a3.149,3.149,0,0,0,6.3,0V51.762h3.936a1.431,1.431,0,0,0,1.322-1.742L60.837,39.5l-5.467-.362a3.248,3.248,0,0,1-2.915-2.4l-2.49-9.305,4.629,8.08a2.464,2.464,0,0,0,1.975,1.234l9.824.653c.056,0,.111.006.166.006a2.464,2.464,0,0,0,.161-4.923Z" transform="translate(-41.342 -20.768)"/>
          </g>
        </g>
        <g id="Grupo_44" data-name="Grupo 44" transform="translate(32.973)">
          <g id="Grupo_43" data-name="Grupo 43">
            <path id="Trazado_2123" data-name="Trazado 2123" d="M46.522,3.629,42.91.283a1.065,1.065,0,0,0-1.447,1.562l3.612,3.346a1.065,1.065,0,0,0,1.447-1.562Z" transform="translate(-41.122 0)"/>
          </g>
        </g>
        <g id="Grupo_46" data-name="Grupo 46" transform="translate(27.664 4.389)">
          <g id="Grupo_45" data-name="Grupo 45">
            <path id="Trazado_2124" data-name="Trazado 2124" d="M43.087,6.948,35.972,5.356a1.064,1.064,0,0,0-.465,2.078l7.115,1.592a1.064,1.064,0,0,0,.465-2.078Z" transform="translate(-34.675 -5.33)"/>
          </g>
        </g>
        <g id="Grupo_48" data-name="Grupo 48" transform="translate(59.894 26.593)">
          <g id="Grupo_47" data-name="Grupo 47">
            <path id="Trazado_2125" data-name="Trazado 2125" d="M73.812,32.291A4.939,4.939,0,0,1,76.987,35.5V32.291Z" transform="translate(-73.812 -32.291)"/>
          </g>
        </g>
        <g id="Grupo_50" data-name="Grupo 50" transform="translate(65.095 26.593)">
          <g id="Grupo_49" data-name="Grupo 49">
            <path id="Trazado_2126" data-name="Trazado 2126" d="M81.194,32.291H80.127v3.683h1.067a.543.543,0,0,0,.543-.543v-2.6A.543.543,0,0,0,81.194,32.291Z" transform="translate(-80.127 -32.291)"/>
          </g>
        </g>
        <g id="Grupo_52" data-name="Grupo 52" transform="translate(66.108 21.303)">
          <g id="Grupo_51" data-name="Grupo 51">
            <path id="Trazado_2127" data-name="Trazado 2127" d="M82.922,25.869H81.357v3.683h1.565a.543.543,0,0,0,.543-.543v-2.6A.543.543,0,0,0,82.922,25.869Z" transform="translate(-81.357 -25.869)"/>
          </g>
        </g>
        <g id="Grupo_54" data-name="Grupo 54" transform="translate(56.316 21.303)">
          <g id="Grupo_53" data-name="Grupo 53">
            <path id="Trazado_2128" data-name="Trazado 2128" d="M70.01,25.869a.543.543,0,0,0-.543.543v2.6a.543.543,0,0,0,.543.543h7.224V25.869Z" transform="translate(-69.467 -25.869)"/>
          </g>
        </g>
        <g id="Grupo_56" data-name="Grupo 56" transform="translate(57.137 15.826)">
          <g id="Grupo_55" data-name="Grupo 55">
            <path id="Trazado_2129" data-name="Trazado 2129" d="M79.016,19.217H70.464V22.9h8.553a.543.543,0,0,0,.543-.543v-2.6A.543.543,0,0,0,79.016,19.217Z" transform="translate(-70.464 -19.217)"/>
          </g>
        </g>
        <g id="Grupo_58" data-name="Grupo 58" transform="translate(54.332 15.826)">
          <g id="Grupo_57" data-name="Grupo 57">
            <path id="Trazado_2130" data-name="Trazado 2130" d="M67.6,19.217a.543.543,0,0,0-.543.543v2.6a.543.543,0,0,0,.543.543h.762V19.217Z" transform="translate(-67.058 -19.217)"/>
          </g>
        </g>
        <g id="Grupo_60" data-name="Grupo 60" transform="translate(38.439 4.206)">
          <g id="Grupo_59" data-name="Grupo 59">
            <circle id="Elipse_286" data-name="Elipse 286" cx="5.438" cy="5.438" r="5.438"/>
          </g>
        </g>
        <g id="Grupo_62" data-name="Grupo 62" transform="translate(18.292 18.869)">
          <g id="Grupo_61" data-name="Grupo 61">
            <circle id="Elipse_287" data-name="Elipse 287" cx="5.137" cy="5.137" r="5.137"/>
          </g>
        </g>
        <g id="Grupo_64" data-name="Grupo 64" transform="translate(0 28.83)">
          <g id="Grupo_63" data-name="Grupo 63">
            <path id="Trazado_2131" data-name="Trazado 2131" d="M36.3,44.048,26.9,43.1,20.423,38.77l2.614.632a3.894,3.894,0,0,0-3.172-3.664l-3.524-.663a3.9,3.9,0,0,0-4.558,3.148L9.47,51.237a3.9,3.9,0,0,0,3.173,4.523l.745.129H8.222L4.9,38.992a1.926,1.926,0,1,0-3.781.743L4.747,58.188a1.927,1.927,0,0,0,1.89,1.555h.339L2.87,70.388a1.284,1.284,0,0,0,2.4.924l4.462-11.57h7.3l2.52,6.533-.8,2.031a2.793,2.793,0,0,0,5.194,2.055l6.34-16.021a2.793,2.793,0,0,0-2.6-3.82h-.008l-6.72.02.621-3.014-5.551-6.562,8.647,6.271a2.33,2.33,0,0,0,1.133.432c10.788,1.088,10.09,1.023,10.265,1.023a2.327,2.327,0,0,0,.231-4.643ZM20.123,59.742a1.927,1.927,0,0,0,.925-3.617l2.523-.007-2.625,6.634-1.161-3.01h.339Z" transform="translate(-1.083 -35.008)"/>
          </g>
        </g>
      </g>
    </g>
  </g>
</svg>
