<svg xmlns="http://www.w3.org/2000/svg" xmlns:xlink="http://www.w3.org/1999/xlink" width="125" height="125" viewBox="0 0 125 125">
  <defs>
    <clipPath id="clip-path">
      <rect id="Rectángulo_1477" data-name="Rectángulo 1477" width="70" height="70" transform="translate(73 542)" fill="#fff" stroke="#707070" stroke-width="1"/>
    </clipPath>
  </defs>
  <g id="Grupo_213" data-name="Grupo 213" transform="translate(-37 -339)">
    <circle id="Elipse_284" data-name="Elipse 284" cx="62.5" cy="62.5" r="62.5" transform="translate(37 339)" fill="#218380" opacity="0.59"/>
    <g id="Enmascarar_grupo_21" data-name="Enmascarar grupo 21" transform="translate(-8 -175)" clip-path="url(#clip-path)">
      <g id="speech-bubble" transform="translate(73 542)">
        <path id="Trazado_2138" data-name="Trazado 2138" d="M48.462,24.231A24.231,24.231,0,1,0,4.212,37.884L1.029,47.432l9.548-3.183A24.232,24.232,0,0,0,48.462,24.231Z"/>
        <path id="Trazado_2139" data-name="Trazado 2139" d="M74.853,50.623A24.239,24.239,0,0,0,57.886,27.5q.042.788.044,1.582A28.827,28.827,0,0,1,29.084,57.93c-.53,0-1.057-.018-1.583-.046A24.237,24.237,0,0,0,64.276,70.642l9.548,3.183-3.183-9.548A24.117,24.117,0,0,0,74.853,50.623Z" transform="translate(-4.853 -4.853)"/>
      </g>
    </g>
  </g>
</svg>
