<?xml version="1.0" encoding="UTF-8"?>
<!DOCTYPE svg PUBLIC "-//W3C//DTD SVG 1.1//EN" "http://www.w3.org/Graphics/SVG/1.1/DTD/svg11.dtd">
<!-- Creator: CorelDRAW -->
<svg xmlns="http://www.w3.org/2000/svg" xml:space="preserve" width="71.73mm" height="73.925mm" version="1.1" style="shape-rendering:geometricPrecision; text-rendering:geometricPrecision; image-rendering:optimizeQuality; fill-rule:evenodd; clip-rule:evenodd"
viewBox="0 0 7173 7392.5"
 xmlns:xlink="http://www.w3.org/1999/xlink"
 xmlns:xodm="http://www.corel.com/coreldraw/odm/2003">
 <defs>
  <style type="text/css">
   <![CDATA[
    .fil0 {fill:#FF6666}
    .fil1 {fill:black;fill-rule:nonzero}
   ]]>
  </style>
 </defs>
 <g id="Capa_x0020_1">
  <metadata id="CorelCorpID_0Corel-Layer"/>
  <rect class="fil0" x="-9.99" y="-0.01" width="744.16" height="7392.51"/>
  <g id="_105553253131392">
   <g>
    <g>
     <path class="fil1" d="M5881.28 2087.97c-1.18,-5.8 -2.9,-11.51 -5.17,-16.95 -2.26,-5.44 -5.08,-10.77 -8.33,-15.66 -3.36,-4.99 -7.16,-9.61 -11.33,-13.78 -4.17,-4.17 -8.79,-7.98 -13.77,-11.23 -4.9,-3.26 -10.15,-6.08 -15.59,-8.35 -5.53,-2.26 -11.23,-3.97 -16.94,-5.15 -29.55,-5.98 -60.81,3.71 -81.83,24.73 -4.16,4.16 -7.97,8.79 -11.23,13.78 -3.25,4.89 -6.07,10.24 -8.34,15.66 -2.26,5.45 -3.97,11.15 -5.16,16.95 -1.18,5.81 -1.81,11.78 -1.81,17.67 0,5.89 0.63,11.87 1.81,17.76 1.17,5.78 2.89,11.41 5.16,16.93 2.27,5.44 5.09,10.69 8.34,15.59 3.26,4.99 7.07,9.61 11.23,13.78 16.86,16.95 40.23,26.55 64.07,26.55 5.88,0 11.87,-0.54 17.76,-1.72 5.71,-1.18 11.41,-2.89 16.94,-5.15 5.44,-2.27 10.69,-5.09 15.59,-8.34 4.99,-3.35 9.6,-7.16 13.77,-11.33 4.17,-4.16 7.97,-8.79 11.33,-13.78 3.25,-4.89 6.07,-10.15 8.33,-15.59 2.27,-5.53 3.99,-11.14 5.17,-16.94 1.18,-5.89 1.72,-11.87 1.72,-17.76 0,-5.89 -0.56,-11.88 -1.72,-17.67z"/>
    </g>
   </g>
   <g>
    <g>
     <path class="fil1" d="M4006.42 2087.96c-1.17,-5.81 -2.89,-11.51 -5.15,-16.95 -2.26,-5.44 -5.08,-10.78 -8.34,-15.66 -3.26,-4.99 -7.06,-9.62 -11.23,-13.79 -4.17,-4.16 -8.8,-7.97 -13.78,-11.23 -4.9,-3.26 -10.15,-6.08 -15.67,-8.34 -5.44,-2.26 -11.14,-3.98 -16.94,-5.15 -11.69,-2.36 -23.75,-2.36 -35.43,0 -5.72,1.17 -11.42,2.89 -16.95,5.15 -5.44,2.26 -10.69,5.08 -15.59,8.34 -4.98,3.26 -9.61,7.06 -13.77,11.23 -4.16,4.17 -7.97,8.8 -11.32,13.79 -3.26,4.89 -6.08,10.23 -8.34,15.66 -2.26,5.45 -3.98,11.14 -5.15,16.95 -1.19,5.8 -1.72,11.77 -1.72,17.67 0,5.89 0.54,11.86 1.72,17.76 1.17,5.78 2.89,11.41 5.15,16.94 2.26,5.44 5.08,10.69 8.34,15.59 3.35,4.99 7.16,9.61 11.32,13.78 4.17,4.17 8.8,7.98 13.77,11.33 4.9,3.25 10.15,6.07 15.59,8.33 5.53,2.27 11.23,3.98 16.95,5.16 5.89,1.19 11.86,1.72 17.76,1.72 5.89,0 11.86,-0.54 17.67,-1.72 5.8,-1.18 11.5,-2.89 16.94,-5.16 5.52,-2.26 10.78,-5.08 15.67,-8.33 4.98,-3.35 9.61,-7.16 13.78,-11.33 4.16,-4.16 7.97,-8.79 11.23,-13.78 3.26,-4.9 6.08,-10.15 8.34,-15.59 2.26,-5.53 3.98,-11.14 5.15,-16.94 1.18,-5.9 1.82,-11.87 1.82,-17.76 0,-5.9 -0.64,-11.87 -1.82,-17.67z"/>
    </g>
   </g>
   <g>
    <g>
     <path class="fil1" d="M6186.96 5358.13l0 -97.65c0,-182.61 -148.57,-331.19 -331.2,-331.19l-683.7 0 0 -2733.01 315.28 0c50.04,0 90.62,-40.58 90.62,-90.62 0,-50.03 -40.58,-90.61 -90.62,-90.61l-201.98 0c21.22,-53.06 33,-110.87 33,-171.41 0.01,-255.5 -207.85,-463.36 -463.35,-463.36 -255.49,0 -463.36,207.86 -463.36,463.36 0,60.54 11.79,118.35 33,171.41l-201.98 0c-50.04,0 -90.62,40.58 -90.62,90.61 0,50.04 40.58,90.62 90.62,90.62l315.28 0 0 2733.01 -683.7 0c-182.61,0 -331.19,148.56 -331.19,331.19l0 97.65c-170.98,12.84 -306.17,156.06 -306.17,330.27 0,182.61 148.58,331.19 331.2,331.19l2613.83 0c182.62,0 331.2,-148.58 331.2,-331.19 0,-174.21 -135.18,-317.43 -306.16,-330.27zm-1331.95 -3796.62c155.57,0 282.14,126.56 282.14,282.13 0,91.95 -44.23,173.74 -112.52,225.28 -4.76,3.6 -9.63,6.99 -14.55,10.26 -1.98,1.31 -3.98,2.58 -5.99,3.84 -4.79,3 -9.63,5.88 -14.56,8.57 -2.32,1.27 -4.71,2.44 -7.07,3.64 -3.4,1.73 -6.83,3.38 -10.3,4.97 -3.16,1.45 -6.34,2.87 -9.56,4.21 -4.25,1.76 -8.53,3.41 -12.86,4.95 -2.8,1.01 -5.63,1.96 -8.47,2.88 -4.92,1.57 -9.87,3.06 -14.87,4.36 -2.51,0.65 -5.04,1.22 -7.57,1.81 -4.5,1.03 -9.01,1.97 -13.56,2.79 -2,0.36 -3.98,0.76 -5.99,1.08 -6.21,0.97 -12.47,1.73 -18.77,2.29 -1.65,0.14 -3.32,0.26 -4.99,0.38 -6.78,0.48 -13.61,0.82 -20.48,0.82 -6.87,0 -13.69,-0.34 -20.47,-0.82 -1.67,-0.12 -3.34,-0.23 -5,-0.38 -6.3,-0.56 -12.56,-1.31 -18.76,-2.29 -2.01,-0.32 -4,-0.72 -5.99,-1.08 -4.55,-0.82 -9.07,-1.76 -13.56,-2.79 -2.53,-0.59 -5.07,-1.15 -7.57,-1.81 -5.01,-1.31 -9.96,-2.79 -14.87,-4.36 -2.85,-0.92 -5.67,-1.87 -8.48,-2.88 -4.32,-1.54 -8.61,-3.2 -12.85,-4.95 -3.23,-1.33 -6.41,-2.76 -9.57,-4.21 -3.46,-1.59 -6.9,-3.25 -10.3,-4.97 -2.36,-1.21 -4.74,-2.38 -7.07,-3.64 -4.93,-2.69 -9.78,-5.57 -14.56,-8.57 -2.01,-1.26 -4.01,-2.53 -5.98,-3.84 -4.93,-3.26 -9.81,-6.66 -14.56,-10.26 -68.29,-51.54 -112.52,-133.33 -112.52,-225.28 -0.05,-155.57 126.51,-282.13 282.08,-282.13zm135.83 725.34l0 2642.44 -271.66 0 0 -2642.44c28.43,8.7 57.77,14.57 87.7,17.65 0.87,0.09 1.76,0.15 2.63,0.24 6.19,0.6 12.41,1.07 18.65,1.42 1.74,0.1 3.47,0.21 5.21,0.3 7.19,0.32 14.39,0.54 21.64,0.54 7.24,0 14.46,-0.22 21.64,-0.54 1.74,-0.09 3.48,-0.19 5.22,-0.3 6.24,-0.35 12.45,-0.82 18.64,-1.42 0.88,-0.08 1.76,-0.15 2.63,-0.24 29.94,-3.07 59.27,-8.94 87.7,-17.65zm1171.08 3551.51l-2613.82 0c-82.7,0 -149.98,-67.27 -149.98,-149.97 0,-82.7 67.28,-149.98 149.98,-149.98l65.58 0.01c1.38,0 2.74,-0.15 4.11,-0.21 1.26,0.05 2.49,0.19 3.77,0.19l1741.95 0c50.04,0 90.61,-40.58 90.61,-90.62 0,-50.04 -40.57,-90.61 -90.61,-90.61l-1659.22 0.01 0 -96.7c0,-82.69 67.28,-149.98 149.97,-149.98l774.32 0 452.87 0 774.31 0c82.69,0 149.97,67.28 149.97,149.98l0 187.33c0,50.03 40.58,90.61 90.61,90.61l65.58 0c82.7,0 149.98,67.27 149.98,149.98 0,82.69 -67.28,149.96 -149.98,149.96z"/>
    </g>
   </g>
   <g>
    <g>
     <path class="fil1" d="M5744.99 5426.18c-16.85,-16.87 -40.22,-26.56 -64.06,-26.56 -23.83,0 -47.21,9.69 -64.06,26.56 -16.85,16.85 -26.55,40.22 -26.55,64.06 0,23.83 9.69,47.21 26.55,64.05 16.84,16.95 40.23,26.56 64.06,26.56 23.84,0 47.21,-9.61 64.06,-26.56 16.86,-16.84 26.55,-40.22 26.55,-64.05 0,-23.84 -9.69,-47.21 -26.55,-64.06z"/>
    </g>
   </g>
   <g>
    <g>
     <path class="fil1" d="M7072.62 3251.46l-506.07 -1055.2 169.94 0c50.03,0 90.61,-40.57 90.61,-90.61 0,-50.03 -40.58,-90.61 -90.61,-90.61l-648.07 0c-50.04,0 -90.62,40.58 -90.62,90.62 0,50.03 40.58,90.61 90.62,90.61l196.03 -0.01 -506.06 1055.2c-34.37,12.88 -58.88,45.94 -58.88,84.79l0 23.03c0,389.29 316.7,705.99 705.99,705.99 389.29,0 706,-316.7 706,-705.99l0 -23.03c0,-38.85 -24.51,-71.91 -58.88,-84.79zm-647.12 -930.23l443.35 924.41 -886.69 0 443.34 -924.41zm0.01 1562.82c-266.47,0 -487.19,-199.63 -520.44,-457.2l1040.89 0.01c-33.26,257.57 -253.99,457.19 -520.45,457.19z"/>
    </g>
   </g>
   <g>
    <g>
     <path class="fil1" d="M3931.63 3251.46l-506.05 -1055.18 196.03 0c50.03,0 90.61,-40.58 90.61,-90.62 0,-50.03 -40.58,-90.61 -90.61,-90.61l-648.08 0c-50.04,0 -90.62,40.58 -90.62,90.61 0,50.04 40.58,90.62 90.62,90.62l169.93 0 -506.07 1055.2c-34.37,12.87 -58.88,45.92 -58.88,84.78l0 23.03c0,389.29 316.71,706 706,706 389.29,-0.01 706,-316.72 706,-706l0 -23.04c0,-38.85 -24.51,-71.91 -58.88,-84.79zm-647.11 -930.23l443.34 924.41 -886.68 0 443.34 -924.41zm0 1562.82c-266.48,0 -487.19,-199.63 -520.45,-457.2l1040.89 0.01c-33.26,257.57 -253.97,457.19 -520.44,457.19z"/>
    </g>
   </g>
   <g>
   </g>
   <g>
   </g>
   <g>
   </g>
   <g>
   </g>
   <g>
   </g>
   <g>
   </g>
   <g>
   </g>
   <g>
   </g>
   <g>
   </g>
   <g>
   </g>
   <g>
   </g>
   <g>
   </g>
   <g>
   </g>
   <g>
   </g>
   <g>
   </g>
  </g>
 </g>
</svg>
