<?xml version="1.0" encoding="UTF-8"?>
<!DOCTYPE svg PUBLIC "-//W3C//DTD SVG 1.1//EN" "http://www.w3.org/Graphics/SVG/1.1/DTD/svg11.dtd">
<!-- Creator: CorelDRAW -->
<svg xmlns="http://www.w3.org/2000/svg" xml:space="preserve" width="101.6mm" height="101.6mm" version="1.1" style="shape-rendering:geometricPrecision; text-rendering:geometricPrecision; image-rendering:optimizeQuality; fill-rule:evenodd; clip-rule:evenodd"
viewBox="0 0 10160 10160"
 xmlns:xlink="http://www.w3.org/1999/xlink"
 xmlns:xodm="http://www.corel.com/coreldraw/odm/2003">
 <defs>
  <style type="text/css">
   <![CDATA[
    .str0 {stroke:#373535;stroke-width:7.62;stroke-miterlimit:22.9256}
    .fil3 {fill:#BDBFC1}
    .fil8 {fill:#373535}
    .fil7 {fill:#201F1F}
    .fil0 {fill:#17519C}
    .fil5 {fill:#BDBFC1;fill-rule:nonzero}
    .fil6 {fill:#AAACAE;fill-rule:nonzero}
    .fil4 {fill:#5CA47B;fill-rule:nonzero}
    .fil1 {fill:#CCCCCC;fill-rule:nonzero}
    .fil2 {fill:#00B0F0;fill-rule:nonzero;fill-opacity:0.600000}
   ]]>
  </style>
 </defs>
 <g id="Capa_x0020_1">
  <metadata id="CorelCorpID_0Corel-Layer"/>
  <rect class="fil0" x="-0" y="-0" width="10160" height="10160"/>
  <path class="fil1" d="M3115.63 4738.79l0.02 0.06 156.92 566.15 0 0.01 364.28 -100.94 54.78 205.72 283.76 -76.07c1045.85,-280.39 1495.87,-401.04 2607.31,-699.02 -0.02,-0.09 -0.06,-0.21 -0.09,-0.3l-129.64 -486.9 0 0 -1.39 -5.19 -1.38 0.37 -132.59 -497.97 -2505.64 671.76 -385.44 103.33 57.74 216.84 -368.64 102.15z"/>
  <path class="fil2" d="M7235.62 3916.1c-56.96,-207.16 -186.63,-384.36 -366.48,-502.3l308.05 1121.29c94.37,-193.2 115.37,-411.8 58.43,-618.99z"/>
  <polygon class="fil3" points="3688.16,5408.5 6580.42,4633.52 6446.76,4134.66 5284.21,4446.17 3554.5,4909.64 3190.31,5007.23 3266.86,5292.94 3631.05,5195.36 "/>
  <path class="fil4" d="M3273.79 4999.56l-76.88 -291.17c-0.01,-0.02 -0.01,-0.04 -0.02,-0.07 -20.61,-78.27 -101.17,-125.13 -179.5,-104.55l-142.02 37.52c-78.23,20.71 -125.09,101.21 -104.5,179.53l80.89 308.08 69.1 259.96c9.99,37.97 34.12,69.76 68.07,89.48 16.98,9.9 35.31,16.15 54.21,18.71 18.83,2.55 38.24,1.38 57.24,-3.62l142.01 -37.51c37.98,-9.99 69.69,-34.17 89.41,-68.09 19.8,-33.9 25.16,-73.48 15.09,-111.39 0,0 0,-0.02 0,-0.02l-73.1 -276.86z"/>
  <path class="fil4" d="M6433.1 4164.09l131.02 486.52c0.04,0.1 0.07,0.2 0.09,0.3 23.97,88.4 82.46,153.76 145.02,170.69 20.29,5.49 40.98,5.87 61.05,0.3l446.31 -124.3c13.16,-3.67 23.74,-14.63 29.46,-30.53 5.71,-15.89 6.08,-35.39 1.01,-54.2l-323.6 -1199.53 -20.72 -76.82c-5.08,-18.82 -15.15,-35.37 -28.04,-46.08 -12.95,-10.74 -27.47,-14.67 -40.68,-11.01l-446.27 124.31c-39.72,11.03 -71.09,43.58 -88.4,91.55 -17.26,48 -18.32,105.76 -3,162.58l0.1 0.34 136.65 505.88z"/>
  <polygon class="fil5" points="5116.73,6306.66 5116.73,6453.55 5897.71,6453.55 5816.1,6306.66 "/>
  <polygon class="fil5" points="4270.42,6306.66 4188.83,6453.55 4969.84,6453.55 4969.84,6306.66 "/>
  <path class="fil5" d="M4969.29 5048.69c-48.91,-12.69 -92.81,-37.71 -128.34,-71.48l-1330.76 2395.44c-19.72,35.46 -6.96,80.18 28.54,99.87 11.26,6.28 23.53,9.25 35.57,9.25 25.83,0 50.86,-13.62 64.27,-37.76l550.26 -990.46 81.6 -146.89 698.86 -1257.97z"/>
  <path class="fil5" d="M5816.1 6306.66l81.61 146.89 550.27 990.46c13.42,24.14 38.45,37.76 64.27,37.76 12.05,0 24.31,-2.97 35.58,-9.25 35.5,-19.69 48.27,-64.41 28.54,-99.87l-1330.82 -2395.4c-35.52,33.76 -79.43,58.77 -128.34,71.44l698.89 1257.97z"/>
  <path class="fil5" d="M5116.73 5048.83c-23.48,6.04 -48.1,9.26 -73.45,9.26 -25.36,0 -49.96,-3.21 -73.44,-9.25l0 1257.82 0 146.89 0 954.78c0,40.56 32.85,73.44 73.45,73.44 40.6,0 73.44,-32.88 73.44,-73.44l0 -954.78 0 -146.89 0 -1257.83z"/>
  <path class="fil1" d="M5035.91 4872.97c-162.24,0 -293.78,131.53 -293.78,293.78 0,72.65 26.44,139.1 70.13,190.39 6.72,7.87 13.85,15.39 21.35,22.52 35.52,33.76 79.42,58.78 128.34,71.47 0.18,0.05 0.36,0.11 0.55,0.16 23.46,6.04 48.08,9.25 73.44,9.25 25.36,0 49.97,-3.21 73.45,-9.26 0.16,-0.05 0.32,-0.09 0.47,-0.14 48.91,-12.68 92.82,-37.69 128.34,-71.45 56.32,-53.52 91.5,-129.09 91.5,-212.93 0,-8.87 -0.46,-17.64 -1.23,-26.3 -13.32,-149.93 -139.18,-267.49 -292.56,-267.49zm0 440.67c-81.12,0 -146.89,-65.77 -146.89,-146.89 0,-81.13 65.77,-146.89 146.89,-146.89 81.12,0 146.89,65.76 146.89,146.89 0,81.12 -65.77,146.89 -146.89,146.89z"/>
  <circle class="fil6" cx="5035.92" cy="5166.76" r="160.19"/>
  <g id="_105553335458272">
   <path class="fil0" d="M5227.08 4730.13l69.19 -18.53 -62.48 -233.79c0.3,0.12 0.65,0 0.9,0.41 0.24,0.4 0.67,0.29 0.88,0.41 1.16,0.65 0.9,0.4 2.21,1.36l8.95 7.81c4.08,3.53 7.71,6.96 11.7,10.38 19.7,16.93 161.36,141.43 169.18,146.71l5.66 -14.63c1.68,-5.4 3.23,-9.82 5.16,-15.55l61.99 -181.66c1.71,-4.97 3.23,-9.37 5.08,-14.76 1.42,-4.14 3.77,-12.37 5.88,-15.36l62.8 234.05 69.6 -18.46 -123.5 -462.56c-3.21,3.93 -59.73,172.75 -63.02,182.23 -3.25,9.35 -60.29,178.88 -62.94,182.47 -5.99,-3.84 -12.87,-10.87 -17.82,-15.3l-254.45 -221.99c-5.82,-5.11 -12.32,-12.7 -18.83,-15.85l123.86 462.61z"/>
   <path class="fil0" d="M4580.63 4835.91l-32.12 -119.05c13.83,-8.33 28.32,-15.79 42.13,-24.51 6.42,-4.05 34.58,-26.18 37.61,-26.47 10.28,-0.96 35.34,10.37 40.89,13.78 10.62,6.52 22.38,16.69 30.05,32.44 18.33,37.69 6.23,65.3 -18.91,84.23 -25.06,18.88 -66.05,33.12 -99.65,39.58zm-49.51 -184.11l-35.91 -133.94c28.16,-9.33 94.05,-27.63 117.02,-3.87 8.52,8.82 13.79,24.5 13.37,37.55 -0.72,22.57 -18.42,43.55 -33.62,58.11 -10.73,10.28 -45.23,36.84 -60.86,42.15zm-3.14 265.69c36.15,-9.63 111.31,-28.29 141.84,-41.18 54.29,-22.92 101.98,-64.55 102.68,-126.16 0.65,-57.85 -32.63,-110.61 -85.16,-134.15l-9.59 -3.83c-0.28,-0.12 -1.11,-0.5 -1.37,-0.64 -1.53,-0.79 -0.81,-0.31 -2.01,-1.23l8.64 -19.72c20.22,-59.11 -4.11,-122.11 -57.11,-144.08 -59.38,-24.6 -151.78,10.25 -216.52,27.62l118.6 443.37z"/>
   <path class="fil0" d="M5703.96 4193.85l196.54 -52.75 -16.73 -62.04 -265.67 71.42 118.87 442.93 265.48 -71.14 -16.62 -62.7 -196.33 52.58c-6.43,-19.34 -29.75,-108.9 -35.97,-133.3l-0.97 -4.01 161.81 -43.38c-4.12,-16.12 -12.29,-48.69 -17.01,-62.7l-161.7 43.29 -31.7 -118.2z"/>
   <path class="fil0" d="M4846.52 4423.6l196.52 -52.76 -16.68 -61.91 -265.72 71.21 118.93 443.07 265.45 -71.22 -16.64 -62.67 -196.29 52.58c-6.02,-17.8 -29.95,-109.77 -36,-133.3l-0.98 -4 161.8 -43.46 -16.97 -62.63 -161.72 43.3 -31.7 -118.21z"/>
   <path class="fil0" d="M4137.9 4658.67c-67.77,27.61 -110.17,107.33 -78.09,185.96 27.61,67.67 108.33,110.12 186.94,77.29 66.54,-27.79 108.54,-107.3 76.81,-185.23 -27.48,-67.49 -107.3,-109.94 -185.66,-78.02z"/>
   <g>
    <path class="fil7 str0" d="M3850.56 4680.11c7.55,0.52 10.91,-3.48 17.59,-6.56 -15.29,-46.49 -84.93,-154.56 -105.28,-217.6 -4.7,-14.56 -4.9,-27.35 0.66,-38.16 4.35,-8.46 13.67,-19.47 27.47,-23.13 1.16,1.12 4.88,10.4 21.53,8.47 12.53,-1.45 16.74,-0.49 28.81,-5.53 -0.08,-5.83 -5.29,-40.56 -12.04,-42.65 -10.88,-3.37 -29.86,8.95 -37.53,15.07 -30.52,24.4 -72.24,32.72 -40.97,109.2 14,34.24 32.6,68.71 49.6,101.07 7.01,13.35 46.72,95.65 50.16,99.82z"/>
    <g>
     <path class="fil7 str0" d="M4232.5 4588.7c3.5,1.67 7.81,2.47 11.78,3.61 26.61,7.62 54.19,23.11 75.09,42.16 88.65,80.84 81.89,215.22 1.49,288.07 -60.19,54.55 -146.13,64.48 -210.06,35.33 -46.63,-21.26 -85.41,-57.39 -105.07,-110.93 -6.26,-17.05 -15.24,-48.65 -18.47,-66.39 24.82,-6.62 46.33,-25.04 55.03,-47.55 4.01,-10.35 5.45,-23.4 5.51,-36.41 0.03,-8.61 -0.42,-35.47 -3.55,-42.49l-28.35 1.1c-5.74,37.4 21.44,80.3 -45.43,98.24 -25.38,6.81 -43.32,4.68 -57.9,-6.93 -13.27,-10.55 -25.21,-34.13 -31.43,-53.74l-28.18 11.81c5.64,22.76 28.73,56.51 42.69,66.85 9.75,7.21 18.51,12.51 33.1,14.24 12.29,1.46 28.51,1.73 41.31,-0.24 12.32,39.58 15.5,68.88 36.83,104.22 45.29,75.02 139.63,120.97 237.01,94.69 100.96,-27.25 157.84,-118.27 157.31,-205.88 -0.49,-78.78 -42.3,-145.1 -104.93,-182.81 -14.25,-8.57 -39.66,-19.72 -60.07,-23.57 -1.48,3.95 -3.37,11.91 -3.71,16.62z"/>
     <path class="fil8 str0" d="M3897.21 4380.83c12.35,2.17 15.77,-2.09 27.46,-8.18 12.11,-6.3 16.01,-6.34 16.58,-19.33 29.13,-3.84 49.63,4.76 57.17,35.21 6.08,24.59 7.83,57.99 9.14,82.41 1.43,26.74 2.92,53.39 3.83,79.86 0.59,17.02 1.08,67.54 5.79,81.7 1.83,0.64 11.85,1.57 12.3,1.52 6.86,-0.84 6.07,-5.29 5.77,-10.35 -4.16,-69.82 -6.42,-135.85 -13.4,-206.57 -2.6,-26.26 -4.71,-36.26 -15.61,-60.25 -3.52,-7.76 -0.89,-0.61 -9.6,-8.55 -8.25,-7.53 -23.19,-12.09 -34.74,-14.28 -11.59,-2.21 -18.38,1.73 -28.12,0.5 -57.34,-7.22 -50.59,5.85 -36.57,46.31z"/>
     <path class="fil7 str0" d="M4119.05 4543.64c22.85,-10.07 46.7,2.2 55.23,21.23 10.36,23.14 -1.94,47.52 -21.38,55.97 -23.53,10.23 -47.43,-2.07 -55.76,-21.74 -9.88,-23.34 2.29,-46.81 21.91,-55.46zm-7.02 -16.06c-27.71,12.13 -45.43,45.66 -30.96,78.63 12.13,27.64 45.49,45.05 78.39,30.95 27.79,-11.92 45.43,-45.82 31.07,-78.89 -11.9,-27.43 -45.71,-45.04 -78.5,-30.69z"/>
     <path class="fil7 str0" d="M4112.74 4593.93c5.49,11.36 20.23,18.1 34.44,11.54 11.72,-5.41 18.82,-20.03 11.96,-34.68 -14.03,-29.98 -61.99,-9.12 -46.4,23.14z"/>
    </g>
   </g>
   <path class="fil7 str0" d="M4207.59 4553.4c-4.81,3.97 -4.3,6.48 -4.27,13.83 0.02,5.42 0,10.67 0.02,16 0.03,5.39 -0.95,11.35 2.5,15.77 2.65,3.38 8.71,5.67 14.46,1.66 6.64,-4.64 4.28,-20.42 4.35,-29.57 0.03,-5.09 0.78,-12.13 -2.47,-16.29 -2.93,-3.75 -9.52,-5.57 -14.59,-1.4z"/>
  </g>
 </g>
</svg>
