<svg xmlns="http://www.w3.org/2000/svg" width="82.911" height="106.187" viewBox="0 0 82.911 106.187">
  <g id="doctor" transform="translate(-56.113)">
    <path id="Trazado_2234" data-name="Trazado 2234" d="M136.253,344.387l-17.522-5.154H88.3l-17.522,5.154a9.975,9.975,0,0,0-7.16,9.57v19.552h79.8V353.956A9.975,9.975,0,0,0,136.253,344.387Z" transform="translate(-5.945 -268.878)" fill="#edebed"/>
    <path id="Trazado_2235" data-name="Trazado 2235" d="M219.838,377.427H203.213l-3.325-33.25h23.275Z" transform="translate(-113.957 -272.797)" fill="#a5cdff"/>
    <path id="Trazado_2236" data-name="Trazado 2236" d="M200.644,351.74a16.567,16.567,0,0,0,21.763,0l.756-7.563H199.888Z" transform="translate(-113.957 -272.797)" fill="#8cb4eb"/>
    <path id="Trazado_2237" data-name="Trazado 2237" d="M211.526,287.291h0a11.638,11.638,0,0,1-11.638-11.638V264.016h23.275v11.638A11.637,11.637,0,0,1,211.526,287.291Z" transform="translate(-113.957 -209.261)" fill="#f7d291"/>
    <path id="Trazado_2238" data-name="Trazado 2238" d="M199.888,272.712a24.5,24.5,0,0,0,23.275,0v-8.7H199.888Z" transform="translate(-113.957 -209.261)" fill="#f0c382"/>
    <path id="Trazado_2239" data-name="Trazado 2239" d="M172.1,96.27H169.6V79.645H126.378V96.27h-2.494a4.156,4.156,0,0,0,0,8.312h2.578a21.591,21.591,0,0,0,43.057,0H172.1a4.156,4.156,0,1,0,0-8.312Z" transform="translate(-50.422 -63.127)" fill="#ffe1a0"/>
    <path id="Trazado_2240" data-name="Trazado 2240" d="M126.461,79.645V96.27h-2.326a4.252,4.252,0,0,0-4.151,3.028,4.17,4.17,0,0,0,4.005,5.285h2.556a21.46,21.46,0,0,0,24.864,19.67,21.6,21.6,0,0,1-18.3-21.332V92.472a4.977,4.977,0,0,1,5.633-4.9,42.114,42.114,0,0,0,4.986.286,65.545,65.545,0,0,0,16.42-2.341,12.827,12.827,0,0,0,7.733-5.872Z" transform="translate(-50.505 -63.127)" fill="#f7d291"/>
    <path id="Trazado_2241" data-name="Trazado 2241" d="M147.189,47.537l.208,6.65s-4.987,4.987-4.987,11.638v2.052a3.325,3.325,0,0,1-2.913,3.3l-3.737.467V57.512C135.759,52,140.954,47.26,147.189,47.537Z" transform="translate(-63.128 -37.669)" fill="#a06e50"/>
    <path id="Trazado_2242" data-name="Trazado 2242" d="M275.919,327.043l-3.293-3.293,3.524-4.7a2.036,2.036,0,0,0-.718-3.042l-7.793-3.9L256,352.012h9.975l10.566-21.132A3.325,3.325,0,0,0,275.919,327.043Z" transform="translate(-158.432 -247.382)" fill="#dbd9dc"/>
    <path id="Trazado_2243" data-name="Trazado 2243" d="M320.338,23.488l-.208,11.638s4.987,4.987,4.987,11.638v2.052a3.325,3.325,0,0,0,2.913,3.3l3.737.467V33.463C331.768,27.954,326.572,23.211,320.338,23.488Z" transform="translate(-209.261 -18.607)" fill="#cd916e"/>
    <path id="Trazado_2244" data-name="Trazado 2244" d="M156.24,327.043l3.293-3.293-3.524-4.7a2.036,2.036,0,0,1,.718-3.042l7.793-3.9,11.637,39.9h-9.975l-10.566-21.132A3.325,3.325,0,0,1,156.24,327.043Z" transform="translate(-78.589 -247.382)" fill="#dbd9dc"/>
    <path id="Trazado_2245" data-name="Trazado 2245" d="M164.371,7.5c-13.87,0-16.529,4.217-27.209,7.618a1.164,1.164,0,0,0-.65,1.733c2.318,3.625,10.944,13.075,35.451,6.658a7.767,7.767,0,0,0,5.659-5.974h0A7.773,7.773,0,0,0,173.168,9.3,20.473,20.473,0,0,0,164.371,7.5Z" transform="translate(-63.581 -5.945)" fill="#b67f5f"/>
    <rect id="Rectángulo_1516" data-name="Rectángulo 1516" width="16.625" height="9.976" transform="translate(65.98 94.655)" fill="#a5cdff"/>
    <path id="Trazado_2246" data-name="Trazado 2246" d="M201.96,160.322a1.555,1.555,0,0,0-1.555,1.555v1.663a1.555,1.555,0,0,0,3.111,0v-1.663A1.555,1.555,0,0,0,201.96,160.322Z" transform="translate(-114.367 -127.072)"/>
    <path id="Trazado_2247" data-name="Trazado 2247" d="M298.153,160.322a1.555,1.555,0,0,0-1.555,1.555v1.663a1.555,1.555,0,1,0,3.111,0v-1.663A1.555,1.555,0,0,0,298.153,160.322Z" transform="translate(-190.61 -127.072)"/>
    <path id="Trazado_2248" data-name="Trazado 2248" d="M237.077,219.1a1.555,1.555,0,0,0-2.184-2.214,6.856,6.856,0,0,1-7.79,0,1.555,1.555,0,0,0-2.185,2.214,9.812,9.812,0,0,0,12.16,0Z" transform="translate(-133.428 -171.547)"/>
    <path id="Trazado_2249" data-name="Trazado 2249" d="M197.269,136.274h-3.325a1.555,1.555,0,1,0,0,3.111h3.325a1.555,1.555,0,0,0,0-3.111Z" transform="translate(-108.013 -108.012)"/>
    <path id="Trazado_2250" data-name="Trazado 2250" d="M290.137,139.385h3.325a1.555,1.555,0,1,0,0-3.111h-3.325a1.555,1.555,0,0,0,0,3.111Z" transform="translate(-184.256 -108.012)"/>
    <path id="Trazado_2251" data-name="Trazado 2251" d="M130.882,74.089l-11.212-3.447a3.566,3.566,0,0,0-1.975-3.407l-6.934-3.467V58.825a23.2,23.2,0,0,0,9.751-15.814h.925a5.893,5.893,0,0,0,5.92-5.128,5.7,5.7,0,0,0-3.3-5.77V14.855A11.544,11.544,0,0,0,112.531,3.325h-.263A19.609,19.609,0,0,0,100.79,0C91.074,0,86.61,2.024,81.441,4.368A67.459,67.459,0,0,1,71.779,8.1a1.556,1.556,0,0,0-1,2.093,14.113,14.113,0,0,0,2.535,3.686c-.774.953-2.24,3.39-2.24,8.182V32.182a5.673,5.673,0,0,0,2.387,10.828h1.161a23.2,23.2,0,0,0,9.752,15.817v4.942l-6.934,3.467a3.567,3.567,0,0,0-1.975,3.407L64.255,74.089a11.472,11.472,0,0,0-8.142,11.021v19.52a1.555,1.555,0,1,0,3.111,0V85.111a8.377,8.377,0,0,1,5.945-8.048l11.662-3.585,2.058,2.745-2.339,2.339a4.874,4.874,0,0,0-.914,5.634L80.089,93.1h-4.24V91.33a1.555,1.555,0,0,0-3.111,0V93.1H65.981a1.555,1.555,0,0,0-1.555,1.555v9.975a1.555,1.555,0,0,0,1.555,1.555H82.606a1.555,1.555,0,0,0,1.555-1.555v-3.386l2.041,4.082a1.556,1.556,0,0,0,2.782-1.392L78.419,82.8a1.767,1.767,0,0,1,.332-2.043l3.293-3.293a1.556,1.556,0,0,0,.145-2.033l-3.524-4.7a.48.48,0,0,1,.169-.718l6.126-3.063,4.325,14.828a1.555,1.555,0,1,0,2.986-.871l-.682-2.337a18.2,18.2,0,0,0,11.958,0l-5.979,20.5L94.212,87.566a1.555,1.555,0,1,0-2.986.871l4.85,16.629a1.555,1.555,0,0,0,2.986,0l11.116-38.111,6.126,3.063a.48.48,0,0,1,.17.718l-3.524,4.7a1.556,1.556,0,0,0,.144,2.033l3.293,3.293a1.767,1.767,0,0,1,.332,2.042l-10.566,21.132a1.556,1.556,0,1,0,2.783,1.392L119.5,84.195a4.874,4.874,0,0,0-.914-5.634l-2.339-2.339,2.058-2.744,11.662,3.586a8.377,8.377,0,0,1,5.945,8.048v19.519a1.555,1.555,0,1,0,3.111,0V85.111A11.472,11.472,0,0,0,130.882,74.089ZM81.051,103.075H67.537V96.211h5.2v.107a1.555,1.555,0,1,0,3.111,0v-.107h5.2v6.864ZM82.726,7.2c5.039-2.285,9.02-4.09,18.063-4.09,5.739,0,10.867,2.4,11.928,5.587a1.555,1.555,0,0,0,2.951-.984,7.335,7.335,0,0,0-.317-.79,8.433,8.433,0,0,1,5.6,7.932V31.588h-1.769a1.771,1.771,0,0,1-1.769-1.769V28.155c0-7.211-5.221-12.515-5.443-12.737a1.557,1.557,0,0,0-1.568-.383c-8.635,2.727-20.809,5.025-29.773.49a16.733,16.733,0,0,1-6.063-5.034A76.507,76.507,0,0,0,82.726,7.2Zm24.925,57.307L104.68,74.694a15.091,15.091,0,0,1-14.222,0L87.487,64.508V60.649a23.134,23.134,0,0,0,20.164,0ZM97.569,59.85A20.08,20.08,0,0,1,77.512,39.793a1.555,1.555,0,0,0-3.111,0V39.9h-.938a2.6,2.6,0,0,1-2.587-2.874A2.76,2.76,0,0,1,73.7,34.7h2.256a4.886,4.886,0,0,0,4.88-4.88V23.947a1.555,1.555,0,1,0-3.111,0v5.871a1.772,1.772,0,0,1-1.769,1.769h-1.77V22.06c0-3.619.973-5.419,1.422-6.057a21.38,21.38,0,0,0,3.369,2.172A29.037,29.037,0,0,0,91.448,21.2a58.87,58.87,0,0,0,18.923-2.9c1.234,1.495,3.93,5.283,3.93,9.855v1.663a4.886,4.886,0,0,0,4.88,4.88h2.494a2.6,2.6,0,0,1,2.587,2.874,2.759,2.759,0,0,1-2.824,2.327h-.7v-.091a1.555,1.555,0,0,0-1.555-1.555h0a1.555,1.555,0,0,0-1.555,1.554A20.083,20.083,0,0,1,97.569,59.85Z" transform="translate(0)"/>
    <path id="Trazado_2252" data-name="Trazado 2252" d="M370.6,437.027h-2.6v-2.6a1.555,1.555,0,0,0-3.111,0v2.6h-2.6a1.555,1.555,0,1,0,0,3.111h2.6v2.6a1.555,1.555,0,1,0,3.111,0v-2.6h2.6a1.555,1.555,0,1,0,0-3.111Z" transform="translate(-241.439 -343.096)"/>
  </g>
</svg>
