<?xml version="1.0" encoding="UTF-8"?>
<!DOCTYPE svg PUBLIC "-//W3C//DTD SVG 1.1//EN" "http://www.w3.org/Graphics/SVG/1.1/DTD/svg11.dtd">
<!-- Creator: CorelDRAW -->
<svg xmlns="http://www.w3.org/2000/svg" xml:space="preserve" width="80mm" height="80mm" version="1.1" style="shape-rendering:geometricPrecision; text-rendering:geometricPrecision; image-rendering:optimizeQuality; fill-rule:evenodd; clip-rule:evenodd"
viewBox="0 0 8000 8000"
 xmlns:xlink="http://www.w3.org/1999/xlink"
 xmlns:xodm="http://www.corel.com/coreldraw/odm/2003">
 <defs>
  <style type="text/css">
   <![CDATA[
    .fil0 {fill:#4BC6EF}
    .fil2 {fill:#FF6600}
    .fil1 {fill:white}
   ]]>
  </style>
 </defs>
 <g id="Capa_x0020_1">
  <metadata id="CorelCorpID_0Corel-Layer"/>
  <g id="_105553335489760">
   <g>
    <g>
     <path class="fil0" d="M3850.58 5351.55c-328.56,0 -595.85,266.42 -595.85,593.73 0,327.42 267.3,593.95 595.85,593.95 328.66,0 595.95,-266.53 595.95,-593.95 0,-327.3 -267.34,-593.73 -595.95,-593.73z"/>
    </g>
   </g>
   <g>
    <g>
     <path class="fil0" d="M5304.35 4542.59c-387.92,-387.7 -904.28,-601.32 -1453.77,-601.32 -547.37,0 -1062.33,212.2 -1450.14,597.47 -156.63,155.88 -156.91,409.83 -0.66,565.98 75.91,76 176.97,117.75 284.54,117.75 107.08,0 207.76,-41.53 283.56,-116.89 236.01,-234.54 549.49,-363.74 882.71,-363.74 334.46,0 648.81,130.02 884.98,365.97 75.9,75.79 176.91,117.65 284.37,117.65 107.18,0 207.81,-41.53 283.66,-116.89 156.84,-155.89 157.12,-409.72 0.75,-565.98z"/>
    </g>
   </g>
   <g>
    <g>
     <path class="fil0" d="M7171.86 2681.26c-886.88,-884.7 -2066.48,-1371.79 -3321.28,-1371.79 -1253.12,0 -2431.52,485.94 -3318.14,1368.55 -156.63,155.87 -156.74,409.82 -0.22,565.97 75.85,75.63 176.75,117.22 284.1,117.22 107.29,0 208.08,-41.42 283.93,-117 734.91,-731.49 1711.64,-1134.43 2750.33,-1134.43 1040.2,0 2017.9,403.75 2752.98,1137.2 75.85,75.68 176.91,117.43 284.2,117.43 107.24,0 208.03,-41.64 283.83,-117.11 156.68,-156 156.85,-410.05 0.27,-566.04z"/>
    </g>
   </g>
   <g>
    <g>
     <path class="fil0" d="M6214.44 3635.26c-631.3,-629.84 -1470.8,-976.67 -2363.86,-976.67 -891.44,0 -1729.69,345.75 -2360.45,973.36 -75.96,75.52 -117.76,175.99 -117.92,282.96 0,106.86 41.64,207.43 117.49,283.07 75.85,75.69 176.8,117.44 284.15,117.44 107.18,0 207.97,-41.64 283.93,-117.01 479.17,-476.73 1115.9,-739.35 1792.8,-739.35 678.31,0 1315.9,263.54 1795.39,741.9 75.96,75.8 176.86,117.55 284.26,117.55 107.24,0 208.09,-41.64 283.83,-117.11 75.85,-75.52 117.75,-175.99 117.81,-282.96 0.11,-106.98 -41.63,-207.44 -117.43,-283.18z"/>
    </g>
   </g>
   <g>
   </g>
   <g>
   </g>
   <g>
   </g>
   <g>
   </g>
   <g>
   </g>
   <g>
   </g>
   <g>
   </g>
   <g>
   </g>
   <g>
   </g>
   <g>
   </g>
   <g>
   </g>
   <g>
   </g>
   <g>
   </g>
   <g>
   </g>
   <g>
   </g>
  </g>
  <polygon class="fil1" points="6094.55,3657.6 6574.79,4238.99 6953.5,4955.82 7712.98,6348.06 7528.14,6567.13 6060.38,6552.87 4684.51,6581.52 4460.92,6334.71 5137.2,5007.7 5717.51,4031.85 "/>
  <g id="_105553335495232">
   <g>
    <g>
     <path class="fil2" d="M7729.39 6071.03l-1306.84 -2263.51c-72.67,-125.86 -202.82,-201.01 -348.17,-201.01 -145.34,0 -275.51,75.15 -348.17,201.01l-1306.83 2263.5c-72.68,125.88 -72.68,276.17 0,402.04 72.67,125.86 202.82,201.01 348.17,201.01l2613.66 0c145.34,0 275.5,-75.15 348.18,-201.01 72.67,-125.87 72.67,-276.16 0,-402.03zm-173.48 301.88c-36.47,63.16 -101.78,100.86 -174.7,100.86l-2613.66 0c-72.94,0 -138.25,-37.7 -174.71,-100.86 -36.46,-63.16 -36.46,-138.56 0,-201.72l1306.85 -2263.51c36.46,-63.16 101.77,-100.86 174.7,-100.86 72.92,0 138.23,37.7 174.69,100.86l1306.84 2263.51c36.45,63.16 36.45,138.56 -0.01,201.72z"/>
    </g>
   </g>
   <g>
    <g>
     <rect class="fil2" x="5974.22" y="4606.13" width="200.31" height="1001.54"/>
    </g>
   </g>
   <g>
    <g>
     <path class="fil2" d="M6074.38 5808c-73.64,0 -133.54,59.9 -133.54,133.54 0,73.64 59.9,133.55 133.54,133.55 73.63,0 133.54,-59.91 133.54,-133.55 0,-73.64 -59.91,-133.54 -133.54,-133.54z"/>
    </g>
   </g>
  </g>
 </g>
</svg>
