<?xml version="1.0" encoding="UTF-8"?>
<!DOCTYPE svg PUBLIC "-//W3C//DTD SVG 1.1//EN" "http://www.w3.org/Graphics/SVG/1.1/DTD/svg11.dtd">
<!-- Creator: CorelDRAW -->
<svg xmlns="http://www.w3.org/2000/svg" xml:space="preserve" width="80mm" height="80mm" version="1.1" style="shape-rendering:geometricPrecision; text-rendering:geometricPrecision; image-rendering:optimizeQuality; fill-rule:evenodd; clip-rule:evenodd"
viewBox="0 0 8000 8000"
 xmlns:xlink="http://www.w3.org/1999/xlink"
 xmlns:xodm="http://www.corel.com/coreldraw/odm/2003">
 <defs>
  <style type="text/css">
   <![CDATA[
    .str0 {stroke:black;stroke-width:20;stroke-miterlimit:22.9256}
    .fil5 {fill:black}
    .fil1 {fill:#1A1A1A}
    .fil4 {fill:gray}
    .fil3 {fill:#CC9933}
    .fil6 {fill:#FF6600}
    .fil2 {fill:yellow}
    .fil0 {fill:white}
   ]]>
  </style>
 </defs>
 <g id="Capa_x0020_1">
  <metadata id="CorelCorpID_0Corel-Layer"/>
  <path class="fil0" d="M1347.21 3302.92c-143.78,100.89 -239.05,29.66 -528.4,253.66 -548.26,424.38 -482.51,1272.57 78.25,1622.56 383.18,239.18 897.38,162.99 1464.11,162.99 519.82,0 2909.62,33.92 3219.8,-23.87 1142.22,-212.78 1417.9,-1810.85 381.63,-2381.84 -273.61,-150.76 -353.79,-106.69 -642.77,-182.2 -88.45,-166.61 -91.28,-770.37 -722.37,-1124.09 -655.4,-367.34 -1506.42,-171.91 -1892.39,519.25 -201.55,360.87 -191.9,61.58 -638.38,58.49 -283.97,-2 -496.55,140.98 -613.37,306.96 -235.11,333.98 -63.31,465.04 -106.11,788.09z"/>
  <path class="fil1" d="M1347.21 3302.92c42.8,-323.05 -129,-454.11 106.11,-788.09 116.82,-165.98 329.4,-308.96 613.37,-306.96 446.48,3.09 436.83,302.38 638.38,-58.49 385.97,-691.16 1236.99,-886.59 1892.39,-519.25 631.09,353.72 633.92,957.48 722.37,1124.09 288.98,75.51 369.16,31.44 642.77,182.2 1036.27,570.99 760.59,2169.06 -381.63,2381.84 -310.18,57.79 -2699.98,23.87 -3219.8,23.87 -566.73,0 -1080.93,76.19 -1464.11,-162.99 -560.76,-349.99 -626.51,-1198.18 -78.25,-1622.56 289.35,-224 384.62,-152.77 528.4,-253.66zm1452.06 -1692c-42.82,73.54 -88.98,113.43 -161.53,204.09 -53.56,66.96 -104.87,125.62 -142.49,208.88 -197.45,-18.87 -272.49,-68.73 -487.09,-66.4 -674.65,83.25 -932.36,509.42 -921.03,1169.13 -46.78,34.58 -184.7,88.29 -250.62,125.7 -604.63,343.22 -824.82,1126.7 -456.57,1732.89 490.96,808.17 1267.02,550.51 2281.24,612.11l-42.13 67.05c107.74,16.86 72.92,-25.05 82.47,76.57 36.3,-64.46 62.78,-78.67 97.36,-146.93l1298.27 1.15c1.32,-70.98 114.61,-20.28 155.71,-9.73 1065.82,81.49 2057.52,71.28 2502.16,-977.96 202.03,-476.76 82.94,-1044.12 -166.17,-1412.05 -222.39,-328.46 -588.68,-578.15 -1075.77,-662.54l-155.7 -473.09c-11.01,43.86 -128.62,-614.65 -1201.77,-833.65 -280.52,-40.59 -553.19,-19.59 -803.69,70.95 -297.63,107.58 -457.4,285.84 -552.65,313.83z"/>
  <path class="fil2" d="M2701.52 5740.94c-71.71,105.28 -74.86,58.02 -114.07,185.53l736.35 4.36c12.79,227.58 -246.41,811.55 -280.71,1097.4 97.72,-116.66 996.93,-1295.74 1054.06,-1433.07l-1298.27 -1.15c-34.58,68.26 -61.06,82.47 -97.36,146.93z"/>
  <path class="fil3" d="M4097.15 5595.15c-57.13,137.33 -956.34,1316.42 -1054.06,1433.07 34.3,-285.83 293.5,-869.8 280.71,-1097.39l-736.35 -4.37c57.86,-121.95 139.72,-227.18 211.43,-332.45 -76.62,-1.06 -77.97,-7.78 -97.41,-2.08 -6.17,1.81 -31.91,-5.69 -39.51,2.38 -30.18,32.03 -14.22,28.71 -42.91,70.05 -77.54,85.93 -224.75,316.58 -271.65,358.11 178.12,50.24 613.33,12.85 829.06,24.51 -2.37,94.57 -363.9,1387.9 -404.41,1458.24 36.73,85.2 -19.16,74.77 72.38,21.34 17.68,-99.8 89.88,-143.66 180,-269.73l413.61 -556.22c88.38,-109.56 126.14,-178.43 219.89,-295.02 98.62,-124.83 192.62,-265.65 294.38,-396.94 100.24,-129.31 233.84,-281.99 300.55,-423.21 -41.1,-10.57 -154.39,-61.25 -155.71,9.71z"/>
  <path class="fil2" d="M1738.38 1387.94c40.11,51.32 -40.93,7.63 86.23,101.46 223.04,164.58 119.63,197.66 272.56,236 -46.72,-158.63 -172.71,-298.95 -358.79,-337.46z"/>
  <path class="fil2" d="M2655.46 1513.71c74.64,-89.02 30.11,-142.4 62.16,-239.23 23.44,-70.81 51.52,-83.09 77.66,-170.56 -158.24,21.67 -208.89,271.43 -139.82,409.79z"/>
  <path class="fil2" d="M2321.16 1678.61l68.93 -6.89 -103.55 -347.83 -43.1 -87.08c-14.03,23.58 -47.41,-37.58 -21.58,113.12 14.73,85.9 91.85,204.03 99.3,328.68z"/>
  <g id="_105553267630720">
   <g>
    <g>
     <path class="fil4" d="M6149.4 2008.89c-99.91,0 -181.18,81.02 -181.18,180.55 0,99.56 81.28,180.61 181.18,180.61 99.95,0 181.23,-81.05 181.23,-180.61 0,-99.53 -81.3,-180.55 -181.23,-180.55z"/>
    </g>
   </g>
   <g>
    <g>
     <path class="fil4" d="M6591.48 1762.9c-117.96,-117.9 -274.98,-182.86 -442.08,-182.86 -166.45,0 -323.04,64.53 -440.97,181.69 -47.63,47.4 -47.71,124.62 -0.2,172.1 23.09,23.12 53.82,35.81 86.53,35.81 32.56,0 63.18,-12.63 86.22,-35.54 71.77,-71.33 167.1,-110.61 268.43,-110.61 101.7,0 197.3,39.53 269.11,111.28 23.08,23.05 53.8,35.78 86.47,35.78 32.6,0 63.2,-12.63 86.26,-35.54 47.7,-47.41 47.78,-124.6 0.23,-172.11z"/>
    </g>
   </g>
   <g>
    <g>
     <path class="fil4" d="M7159.37 1196.89c-269.69,-269.03 -628.39,-417.15 -1009.97,-417.15 -381.05,0 -739.39,147.77 -1009,416.16 -47.63,47.4 -47.67,124.62 -0.07,172.11 23.06,23 53.75,35.64 86.39,35.64 32.63,0 63.28,-12.59 86.34,-35.58 223.48,-222.43 520.49,-344.97 836.34,-344.97 316.32,0 613.63,122.78 837.16,345.82 23.06,23.01 53.79,35.71 86.42,35.71 32.61,0 63.26,-12.67 86.31,-35.62 47.64,-47.43 47.69,-124.69 0.08,-172.12z"/>
    </g>
   </g>
   <g>
    <g>
     <path class="fil4" d="M6868.23 1486.99c-191.97,-191.53 -447.26,-297 -718.83,-297 -271.07,0 -525.97,105.14 -717.78,295.99 -23.1,22.97 -35.81,53.52 -35.86,86.05 0,32.49 12.66,63.07 35.73,86.08 23.06,23.01 53.76,35.71 86.4,35.71 32.6,0 63.25,-12.67 86.34,-35.58 145.72,-144.97 339.34,-224.83 545.17,-224.83 206.27,0 400.16,80.14 545.96,225.6 23.1,23.05 53.78,35.75 86.44,35.75 32.62,0 63.28,-12.67 86.31,-35.62 23.07,-22.96 35.81,-53.51 35.83,-86.04 0.03,-32.53 -12.66,-63.08 -35.71,-86.11z"/>
    </g>
   </g>
   <g>
   </g>
   <g>
   </g>
   <g>
   </g>
   <g>
   </g>
   <g>
   </g>
   <g>
   </g>
   <g>
   </g>
   <g>
   </g>
   <g>
   </g>
   <g>
   </g>
   <g>
   </g>
   <g>
   </g>
   <g>
   </g>
   <g>
   </g>
   <g>
   </g>
  </g>
  <circle class="fil5 str0" cx="2884.02" cy="3165.91" r="125.79"/>
  <circle class="fil5 str0" cx="4255.17" cy="3165.91" r="125.79"/>
  <rect class="fil5 str0" x="3370.29" y="4444.1" width="671.69" height="107.56"/>
  <g id="_105553267625952">
   <polygon class="fil0" points="6094.55,3657.6 6574.79,4238.99 6953.5,4955.82 7712.98,6348.06 7528.14,6567.13 6060.38,6552.87 4684.51,6581.52 4460.92,6334.71 5137.2,5007.7 5717.51,4031.85 "/>
   <g>
    <g>
     <g>
      <path class="fil6" d="M7729.39 6071.03l-1306.84 -2263.51c-72.67,-125.86 -202.82,-201.01 -348.17,-201.01 -145.34,0 -275.51,75.15 -348.17,201.01l-1306.83 2263.5c-72.68,125.88 -72.68,276.17 0,402.04 72.67,125.86 202.82,201.01 348.17,201.01l2613.66 0c145.34,0 275.5,-75.15 348.18,-201.01 72.67,-125.87 72.67,-276.16 0,-402.03zm-173.48 301.88c-36.47,63.16 -101.78,100.86 -174.7,100.86l-2613.66 0c-72.94,0 -138.25,-37.7 -174.71,-100.86 -36.46,-63.16 -36.46,-138.56 0,-201.72l1306.85 -2263.51c36.46,-63.16 101.77,-100.86 174.7,-100.86 72.92,0 138.23,37.7 174.69,100.86l1306.84 2263.51c36.45,63.16 36.45,138.56 -0.01,201.72z"/>
     </g>
    </g>
    <g>
     <g>
      <rect class="fil6" x="5974.22" y="4606.13" width="200.31" height="1001.54"/>
     </g>
    </g>
    <g>
     <g>
      <path class="fil6" d="M6074.38 5808c-73.64,0 -133.54,59.9 -133.54,133.54 0,73.64 59.9,133.55 133.54,133.55 73.63,0 133.54,-59.91 133.54,-133.55 0,-73.64 -59.91,-133.54 -133.54,-133.54z"/>
     </g>
    </g>
   </g>
  </g>
 </g>
</svg>
