<?xml version="1.0" encoding="UTF-8"?>
<!DOCTYPE svg PUBLIC "-//W3C//DTD SVG 1.1//EN" "http://www.w3.org/Graphics/SVG/1.1/DTD/svg11.dtd">
<!-- Creator: CorelDRAW -->
<svg xmlns="http://www.w3.org/2000/svg" xml:space="preserve" width="71.73mm" height="73.925mm" version="1.1" style="shape-rendering:geometricPrecision; text-rendering:geometricPrecision; image-rendering:optimizeQuality; fill-rule:evenodd; clip-rule:evenodd"
viewBox="0 0 7173 7392.5"
 xmlns:xlink="http://www.w3.org/1999/xlink"
 xmlns:xodm="http://www.corel.com/coreldraw/odm/2003">
 <defs>
  <style type="text/css">
   <![CDATA[
    .fil1 {fill:#EFA00B}
    .fil0 {fill:black;fill-rule:nonzero}
   ]]>
  </style>
 </defs>
 <g id="Capa_x0020_1">
  <metadata id="CorelCorpID_0Corel-Layer"/>
  <g id="_105553250848480">
   <g>
    <g>
     <path class="fil0" d="M5366.89 3152.64c-49.36,0 -89.41,40.05 -89.41,89.41 0,49.36 40.05,89.41 89.41,89.41 49.35,0 89.41,-40.05 89.41,-89.41 0,-49.36 -40.06,-89.41 -89.41,-89.41z"/>
    </g>
   </g>
   <g>
    <g>
     <path class="fil0" d="M7068.22 5421.18l-1193.47 -1193.47c194.43,-292.85 296.84,-631.99 296.84,-985.66 0,-986.03 -802.2,-1788.23 -1788.23,-1788.23 -986.03,0 -1788.23,802.2 -1788.23,1788.23 0,986.03 802.2,1788.23 1788.23,1788.23 353.68,0 692.81,-102.42 985.66,-296.83l329.89 329.89c0.04,0.04 0.09,0.08 0.14,0.14l863.43 863.43c67.58,67.57 157.37,104.78 252.87,104.78 95.51,0 185.3,-37.21 252.84,-104.75 67.59,-67.54 104.81,-157.34 104.81,-252.9 0,-95.55 -37.22,-185.35 -104.78,-252.86zm-1741.25 -876.16c0,0.01 -0.01,0.01 -0.01,0.02 -275.99,200.46 -602.27,306.42 -943.6,306.42 -887.43,0 -1609.41,-721.98 -1609.41,-1609.41 0,-887.42 721.98,-1609.41 1609.41,-1609.41 887.43,0 1609.41,721.98 1609.41,1609.41 0,341.33 -105.96,667.61 -306.43,943.6 -100.3,138.17 -221.2,259.08 -359.37,359.37zm187.59 81.06c92.54,-75.71 177.13,-160.3 252.83,-252.83l253.67 253.67c-77.15,91.05 -161.78,175.69 -252.83,252.83l-253.67 -253.67zm1427.21 1174.38c-33.79,33.8 -78.69,52.41 -126.42,52.41 -47.72,0 -92.62,-18.61 -126.41,-52.41l-793.93 -793.93c90.54,-77.7 175.13,-162.28 252.82,-252.82l793.96 793.95c33.78,33.74 52.39,78.62 52.39,126.38 0,47.77 -18.61,92.64 -52.41,126.42z"/>
    </g>
   </g>
   <g>
    <g>
     <path class="fil0" d="M4383.36 1811.47c-788.83,0 -1430.59,641.75 -1430.59,1430.58 0,788.84 641.76,1430.59 1430.59,1430.59 788.83,0 1430.59,-641.75 1430.59,-1430.59 0,-788.83 -641.76,-1430.58 -1430.59,-1430.58zm0 2682.34c-690.22,0 -1251.76,-561.54 -1251.76,-1251.76 0,-690.22 561.54,-1251.76 1251.76,-1251.76 690.22,0 1251.76,561.54 1251.76,1251.76 0,690.22 -561.54,1251.76 -1251.76,1251.76z"/>
    </g>
   </g>
   <g>
    <g>
     <path class="fil0" d="M5385.35 2858.23c-76.99,-200.39 -211.05,-371.72 -387.69,-495.45 -180.84,-126.7 -393.26,-193.67 -614.3,-193.67 -49.37,0 -89.41,40.04 -89.41,89.41 0,49.38 40.04,89.42 89.41,89.42 367.47,0 703.05,230.84 835.07,574.44 13.66,35.55 47.54,57.37 83.48,57.37 10.66,0 21.5,-1.93 32.05,-5.98 46.09,-17.71 69.1,-69.44 51.39,-115.54z"/>
    </g>
   </g>
   <rect class="fil1" x="0.01" y="-0.01" width="744.16" height="7392.51"/>
  </g>
 </g>
</svg>
