<?xml version="1.0" encoding="UTF-8"?>
<!DOCTYPE svg PUBLIC "-//W3C//DTD SVG 1.1//EN" "http://www.w3.org/Graphics/SVG/1.1/DTD/svg11.dtd">
<!-- Creator: CorelDRAW -->
<svg xmlns="http://www.w3.org/2000/svg" xml:space="preserve" width="279.4mm" height="215.9mm" version="1.1" style="shape-rendering:geometricPrecision; text-rendering:geometricPrecision; image-rendering:optimizeQuality; fill-rule:evenodd; clip-rule:evenodd"
viewBox="0 0 27940 21590"
 xmlns:xlink="http://www.w3.org/1999/xlink"
 xmlns:xodm="http://www.corel.com/coreldraw/odm/2003">
 <defs>
  <style type="text/css">
   <![CDATA[
    .str0 {stroke:#373535;stroke-width:7.62;stroke-miterlimit:22.9256}
    .fil2 {fill:#373535}
    .fil1 {fill:#201F1F}
    .fil0 {fill:#17519C}
    .fil3 {fill:#00A85A;fill-rule:nonzero}
   ]]>
  </style>
 </defs>
 <g id="Capa_x0020_1">
  <metadata id="CorelCorpID_0Corel-Layer"/>
  <path class="fil0" d="M16158.6 12872.23l819.45 0.05 1.8 -2768.36c3,2.16 7.26,1.91 8.78,7.15 1.49,5.1 6.57,5.22 8.53,7.15 10.83,10.64 8.77,7.14 20.4,21.57l75.72 112.78c34.61,51.12 64.64,99.74 98.55,149.38 167.61,245.42 1364.36,2040.53 1435.06,2122.13l105.9 -144.93c34.5,-54.74 64.75,-98.97 103.11,-156.62l1222.77 -1823.78c33.69,-49.88 63.5,-93.96 99.91,-148.1 27.9,-41.49 78.28,-125.49 110.47,-152.31l0.94 2772.32 823.8 2.04 4.88 -5477c-47.17,33.88 -1171.6,1731.94 -1236.02,1826.99 -63.55,93.75 -1195.84,1798.18 -1235.76,1829.97 -54.8,-60.14 -109.99,-158.24 -151.58,-221.78l-2154.5 -3206.44c-49.09,-73.73 -98.44,-176.87 -161.05,-230.94l-1.16 5478.73z"/>
  <path class="fil0" d="M8702.08 12127.06l-2.48 -1410.67c177.5,-51.09 359.64,-90.65 538.11,-146.08 82.9,-25.75 459.66,-186.95 494,-181.11 116.41,19.79 359.78,219.16 411.04,273.27 98.05,103.47 197.92,250.7 235.97,447.51 91,470.73 -124.55,740.03 -458.35,874.78 -332.84,134.37 -827.98,170.39 -1218.29,142.3zm-2.05 -2181.11l-0.24 -1586.42c338.88,-19.66 1121.09,-26.78 1304.55,303.78 68.11,122.72 79.85,311.52 36.62,454.47 -74.8,247.33 -332.49,426.7 -543.61,542.64 -148.97,81.81 -608.86,273.12 -797.32,285.53zm-821.37 2926.66c427.99,0.6 1313.75,16.93 1689.36,-35.11 667.8,-92.52 1317.99,-411.29 1508.09,-1090.07 178.48,-637.26 -33.02,-1318.8 -543.74,-1734.49l-94.62 -70.72c-2.77,-2.2 -10.79,-8.85 -13.32,-11.16 -14.56,-13.28 -8.03,-5.82 -18.59,-19.56l153.95 -192.3c398.4,-593.34 316.15,-1361.52 -204.53,-1761.18 -583.26,-447.69 -1707.5,-336.13 -2474.39,-335.91l-2.21 5250.5z"/>
  <path class="fil0" d="M23016.13 8358.2l2327.98 -1.02 -1.18 -735.04 -3147.12 2.52 2.04 5246.46 3144.21 -0.04 2 -742.06 -2325.13 -0.32c-13.73,-232.73 -6.34,-1291.38 -2.83,-1579.5l1.16 -47.1 1916.51 -0.3c2.22,-190.35 8.31,-574.4 -2.34,-743.21l-1915.03 -0.41 -0.27 -1399.98z"/>
  <path class="fil0" d="M12861.03 8358.2l2327.74 -1.19 -0.94 -733.46 -3147.13 0.13 2.34 5248.11 3144.06 -1.04 1.69 -741.72 -2324.73 -0.17c-13.77,-214.55 -5.95,-1301.72 -3.03,-1579.66l0.99 -47.09 1916.6 -1.18 -2.11 -742.31 -1915.2 -0.28 -0.28 -1400.14z"/>
  <path class="fil0" d="M4334.6 8857.64c-830.68,104.42 -1535.24,859.75 -1413.58,1823.62 104.71,829.53 871.06,1537.63 1836.93,1407.6 817.49,-110.05 1517.08,-864.28 1397.18,-1819.39 -103.84,-827.19 -860.13,-1532.55 -1820.53,-1411.83z"/>
  <polygon class="fil1 str0" points="2214.5,13677.08 25865.6,13676.3 25867.03,13414.03 2209.99,13413.91 "/>
  <path class="fil1 str0" d="M5587.04 8364.47c33.73,28.89 79.08,50.47 119.58,74.79 271.45,163 530.38,415.82 704.86,688.24 740.24,1155.8 267.63,2620.7 -836.45,3187.65 -826.69,424.51 -1805.76,279.86 -2425.87,-231.54 -452.3,-373.02 -773.79,-887.09 -832.59,-1536.99 -18.71,-206.85 -24.29,-582.69 -7.45,-788.28 293.87,0.36 586.08,-139.52 748.88,-362.43 74.87,-102.52 129.51,-242.44 168.61,-386.11 25.85,-94.98 100.49,-393.16 86.63,-480l-316.54 -71.74c-174.12,396.26 -0.82,950.77 -792.83,951.02 -300.61,0.09 -492.62,-76.59 -619.37,-247.96 -115.34,-155.93 -177.5,-451.88 -188.12,-686.88l-346.37 47c-5.1,268.22 150.12,709.56 273.78,865.07 86.37,108.64 167.5,193.1 323.57,255.43 131.53,52.54 309.86,103.54 457.23,119.64 18.95,473.85 -32.74,807.03 98.38,1260.74 278.3,963.04 1184.77,1750.16 2338.61,1748.04 1196.32,-2.2 2094.41,-839.49 2347.88,-1809.26 227.89,-871.89 -37.78,-1728.55 -618.23,-2330.72 -132.01,-136.95 -379.76,-335.34 -593.99,-438.32 -27.96,39.22 -72.42,121.62 -90.2,172.61z"/>
  <path class="fil1 str0" d="M1095.96 8243.71c81.84,28.12 130.78,-6.18 213.7,-20.35 -31.27,-558.98 -480.79,-1959.44 -519.02,-2716.26 -8.84,-174.82 26.79,-316.81 120.25,-419.8 73.13,-80.58 208.73,-174.64 372.06,-174.18 9.5,15.76 23.18,129.33 212.84,157.3 142.75,21.06 186.46,44.14 334.75,24.23 16.34,-64.63 61.58,-463.93 -6.81,-507 -110.26,-69.45 -356.44,10.49 -459.29,55.5 -409.57,179.26 -895.17,147.62 -776.08,1085.36 53.31,419.78 156.75,855.79 248.8,1263.66 37.99,168.33 233.11,1195.28 258.8,1251.54z"/>
  <path class="fil2 str0" d="M2497.58 5074.76c129.99,60.55 180.36,23.57 327.57,-9.05 152.49,-33.78 195.74,-22.74 240.47,-164.51 333.34,43.76 534.34,199.48 527.46,558.32 -5.55,289.69 -85.11,663.99 -142.98,937.69 -63.37,299.7 -125.76,598.61 -194.07,893.84 -43.92,189.81 -188.09,749.52 -178.02,919.9 18.38,12.53 126.32,52.51 131.5,53.24 78.28,11.08 82.76,-40.51 94.41,-97.32 160.71,-783.8 331.27,-1520.13 463.49,-2322.33 49.08,-297.81 55.34,-414.54 5.97,-711.98 -15.96,-96.14 -8.12,-9.34 -80.77,-122.85 -68.92,-107.67 -220.5,-202.25 -341.61,-260.7 -121.57,-58.66 -208.25,-35.33 -312.25,-77.72 -612.2,-249.55 -576.38,-85.1 -541.17,403.47z"/>
  <path class="fil1 str0" d="M4466.87 7530.72c282.31,-43.64 509.54,162.51 547.4,398.13 46.02,286.39 -162.09,519.31 -401.97,555.16 -290.34,43.38 -517.98,-163.34 -551.78,-405.4 -40.1,-287.13 163.88,-510.4 406.35,-547.89zm-29.98 -198.28c-342.14,51.98 -637.28,370.01 -574.99,777.22 52.21,341.35 369.28,632.52 774.58,574.07 342.43,-49.38 637.68,-371.79 576.98,-779.75 -50.33,-338.29 -371.75,-633.05 -776.57,-571.54z"/>
  <path class="fil1 str0" d="M4248.22 8067.71c27.03,141.79 169.97,259.86 346.38,229.47 145.56,-25.07 267.31,-165.61 234.9,-347.74 -66.34,-372.91 -658,-284.31 -581.28,118.27z"/>
  <path class="fil1 str0" d="M5416.35 7900.74c-64.93,29.59 -66.75,58.8 -88.15,140.13 -15.79,60.01 -31.61,117.93 -47.1,176.83 -15.69,59.66 -44.1,122.66 -19.06,181.7 19.19,45.25 79.44,88.5 154.8,61.17 87.18,-31.63 107.82,-212.97 135.61,-313.95 15.43,-56.1 44.61,-131.69 20.98,-187.24 -21.3,-50.11 -88.75,-89.78 -157.08,-58.64z"/>
  <path class="fil3" d="M2504.64 14862.05c38.89,0 77,-10.84 112.77,-31.43 34.23,-20.59 64.56,-49.85 91.78,-86.7 26.44,-36.85 46.67,-79.11 61.44,-127.88 14.79,-48.77 22.56,-101.88 22.56,-156.06 0,-54.19 -7.77,-107.3 -22.56,-157.15 -14.77,-47.69 -35,-89.95 -61.44,-127.88 -27.22,-36.85 -57.55,-65.03 -91.78,-85.62 -35.77,-20.59 -73.88,-31.43 -112.77,-31.43 -38.89,0 -77,10.84 -112,31.43 -35,20.59 -65.33,48.77 -91.78,85.62 -26.44,37.93 -47.44,80.19 -62.22,127.88 -14.77,49.85 -22.55,102.96 -22.55,157.15 0,54.18 7.78,107.29 22.55,156.06 14.78,48.77 35.78,91.03 62.22,127.88 26.45,36.85 56.78,66.11 91.78,86.7 35,20.59 73.11,31.43 112,31.43zm0 -678.43c52.89,0 102.66,29.26 139.99,81.28 37.34,52.02 58.34,121.38 58.34,195.08 0,73.69 -21,143.05 -58.34,195.07 -37.33,52.02 -87.1,81.28 -139.99,81.28 -52.89,0 -102.67,-29.26 -140,-81.28 -37.33,-52.02 -58.33,-121.38 -58.33,-195.07 0,-73.7 21,-143.06 58.33,-195.08 37.33,-52.02 87.11,-81.28 140,-81.28z"/>
  <path id="1" class="fil3" d="M3238.07 14517.41c-9.33,-29.26 -22.56,-55.27 -39.67,-79.11 -8.55,-10.84 -17.1,-20.59 -26.44,-29.26 35,-50.94 45.11,-104.04 45.11,-147.39 0,-31.43 -3.89,-59.61 -11.67,-84.54 -8.55,-27.09 -21.77,-50.93 -39.66,-69.36 -32.67,-33.59 -79.33,-49.85 -143.11,-49.85l-37.33 0 -90.23 0 0 804.15 76.23 0 51.33 0c65.33,0 119,-18.42 158.67,-53.1 22.55,-20.6 40.44,-46.61 52.88,-76.95 12.44,-32.51 18.67,-68.28 18.67,-108.38 0,-37.93 -4.67,-73.69 -14.78,-106.21zm-215.44 -346.8c30.33,0 72.33,5.42 94.11,28.18 8.56,8.67 18.67,23.84 18.67,62.86 0,26.01 -7.78,48.77 -24.11,70.44 -15.56,21.68 -38.12,40.1 -66.89,56.36 -20.22,11.92 -41.22,20.59 -59.11,26.01l0 -243.85 37.33 0zm114.33 542.96c-25.66,22.76 -65.33,34.69 -114.33,34.69l-37.33 0 0 -216.76c24.11,-7.58 56,-18.42 87.88,-36.84 8.56,-4.34 16.33,-9.76 24.11,-14.09 17.9,10.83 32.67,23.84 44.34,40.1 20.22,27.09 30.33,60.69 30.33,102.95 0,40.1 -10.89,68.28 -35,89.95z"/>
  <path id="2" class="fil3" d="M3644.06 14587.86c-8.55,-37.93 -25.66,-73.7 -50.55,-105.13 -12.44,-16.25 -29.55,-39.01 -43.56,-58.52l-96.44 -128.97c-24.11,-32.51 -24.89,-57.44 -21.77,-72.61 4.66,-22.76 21.77,-41.18 41.99,-46.6 16.34,-4.34 46.67,-4.34 76.22,45.52l70.78 -79.12c-22.56,-37.93 -49,-65.02 -78.55,-81.28 -28,-14.09 -57.56,-17.34 -85.56,-8.67 -25.67,6.5 -49.77,22.76 -69.22,45.52 -21,24.93 -35.78,55.27 -42.77,89.95 -7.01,32.51 -6.23,68.28 1.55,101.87 7.78,34.69 22.55,67.2 44.33,96.46l70.78 93.2c3.11,4.34 45.11,61.78 70.77,95.37 16.34,21.68 34.23,54.19 26.45,91.04 -7,32.51 -31.11,59.61 -60.66,67.19 -17.12,5.42 -35.79,3.25 -52.9,-6.5 -20.99,-10.84 -40.44,-32.51 -56.77,-62.86l-71.56 78.03c27.22,48.77 59.12,82.37 95.67,102.96 21.78,11.92 45.11,17.34 68.44,17.34 11.67,0 23.34,-1.08 35,-4.34 63,-17.34 113.55,-79.11 129.89,-157.14 7.78,-36.85 7,-75.86 -1.56,-112.71z"/>
  <polygon id="3" class="fil3" points="3829.17,14170.61 4085.06,14170.61 4085.06,14057.9 3828.4,14057.9 3738.95,14057.9 3738.95,14862.05 3828.4,14862.05 4085.06,14862.05 4085.06,14748.26 3829.17,14748.26 3829.17,14498.99 4039.95,14498.99 4039.95,14385.2 3829.17,14385.2 "/>
  <path id="4" class="fil3" d="M4439.72 14571.6c31.11,-15.17 52.89,-40.1 66.89,-61.77 30.33,-46.6 46.66,-111.63 46.66,-185.32 0,-74.78 -16.33,-139.81 -46.66,-186.41 -23.34,-36.85 -67.67,-80.2 -143.89,-80.2l-94.89 0 -76.22 0 0 804.15 90.22 0 0 -272.02 66.11 0 145.44 272.02 101.89 0 -155.55 -290.45zm-157.89 -94.28l0 -305.63 80.89 0c37.33,0 65.33,14.09 83.22,42.27 21.78,32.51 25.67,78.03 25.67,110.55 0,31.42 -3.89,76.94 -25.67,109.45 -17.89,28.18 -45.89,43.36 -83.22,43.36l-80.89 0z"/>
  <polygon id="5" class="fil3" points="4687.83,14057.9 4588.27,14057.9 4852.71,14897.81 5100.04,14057.9 5002.04,14057.9 4850.38,14587.86 "/>
  <path id="6" class="fil3" d="M5403.37 14862.05l98.78 0 -250.44 -841 -251.23 841 99.56 0 49 -172.32 205.33 0 49 172.32zm-221.66 -285.03l70 -244.93 70 244.93 -140 0z"/>
  <polygon id="7" class="fil3" points="5873.92,14057.9 5465.59,14057.9 5465.59,14170.61 5624.26,14170.61 5624.26,14862.05 5715.25,14862.05 5715.25,14170.61 5873.92,14170.61 "/>
  <path id="8" class="fil3" d="M6178.03 14862.05c38.89,0 76.99,-10.84 112.77,-31.43 34.22,-20.59 64.56,-49.85 91.78,-86.7 26.44,-36.85 46.66,-79.11 61.44,-127.88 14.78,-48.77 22.55,-101.88 22.55,-156.06 0,-54.19 -7.77,-107.3 -22.55,-157.15 -14.78,-47.69 -35,-89.95 -61.44,-127.88 -27.22,-36.85 -57.56,-65.03 -91.78,-85.62 -35.78,-20.59 -73.88,-31.43 -112.77,-31.43 -38.89,0 -77,10.84 -112,31.43 -35,20.59 -65.34,48.77 -91.78,85.62 -26.44,37.93 -47.45,80.19 -62.22,127.88 -14.78,49.85 -22.56,102.96 -22.56,157.15 0,54.18 7.78,107.29 22.56,156.06 14.77,48.77 35.78,91.03 62.22,127.88 26.44,36.85 56.78,66.11 91.78,86.7 35,20.59 73.11,31.43 112,31.43zm0 -678.43c52.88,0 102.66,29.26 139.99,81.28 37.34,52.02 58.34,121.38 58.34,195.08 0,73.69 -21,143.05 -58.34,195.07 -37.33,52.02 -87.11,81.28 -139.99,81.28 -52.9,0 -102.67,-29.26 -140,-81.28 -37.34,-52.02 -58.34,-121.38 -58.34,-195.07 0,-73.7 21,-143.06 58.34,-195.08 37.33,-52.02 87.1,-81.28 140,-81.28z"/>
  <path id="9" class="fil3" d="M6816.57 14571.6c31.11,-15.17 52.89,-40.1 66.89,-61.77 30.33,-46.6 46.66,-111.63 46.66,-185.32 0,-74.78 -16.33,-139.81 -46.66,-186.41 -23.34,-36.85 -67.67,-80.2 -143.89,-80.2l-94.89 0 -76.22 0 0 804.15 90.22 0 0 -272.02 66.11 0 145.44 272.02 101.89 0 -155.55 -290.45zm-157.89 -94.28l0 -305.63 80.89 0c37.33,0 65.33,14.09 83.22,42.27 21.78,32.51 25.67,78.03 25.67,110.55 0,31.42 -3.89,76.94 -25.67,109.45 -17.89,28.18 -45.89,43.36 -83.22,43.36l-80.89 0z"/>
  <polygon id="10" class="fil3" points="7133.12,14862.05 7133.12,14057.9 7042.89,14057.9 7042.89,14862.05 "/>
  <path id="11" class="fil3" d="M7522.78 14862.05c38.89,0 77,-10.84 112.77,-31.43 34.23,-20.59 64.56,-49.85 91.78,-86.7 26.44,-36.85 46.67,-79.11 61.44,-127.88 14.79,-48.77 22.56,-101.88 22.56,-156.06 0,-54.19 -7.77,-107.3 -22.56,-157.15 -14.77,-47.69 -35,-89.95 -61.44,-127.88 -27.22,-36.85 -57.55,-65.03 -91.78,-85.62 -35.77,-20.59 -73.88,-31.43 -112.77,-31.43 -38.89,0 -77,10.84 -112,31.43 -35,20.59 -65.33,48.77 -91.78,85.62 -26.44,37.93 -47.44,80.19 -62.22,127.88 -14.77,49.85 -22.55,102.96 -22.55,157.15 0,54.18 7.78,107.29 22.55,156.06 14.78,48.77 35.78,91.03 62.22,127.88 26.45,36.85 56.78,66.11 91.78,86.7 35,20.59 73.11,31.43 112,31.43zm0 -678.43c52.88,0 102.66,29.26 139.99,81.28 37.34,52.02 58.34,121.38 58.34,195.08 0,73.69 -21,143.05 -58.34,195.07 -37.33,52.02 -87.11,81.28 -139.99,81.28 -52.89,0 -102.67,-29.26 -140,-81.28 -37.33,-52.02 -58.33,-121.38 -58.33,-195.07 0,-73.7 21,-143.06 58.33,-195.08 37.33,-52.02 87.11,-81.28 140,-81.28z"/>
  <path id="12" class="fil3" d="M8501.98 14178.2c-24.88,-39.02 -55.99,-69.36 -92.55,-88.87 -37.33,-21.68 -79.33,-31.43 -125.99,-31.43l-46.67 0 -90.23 0 0 804.15 30.34 0 106.56 0c46.66,0 88.66,-10.84 125.99,-31.43 36.56,-19.51 67.67,-49.85 92.55,-88.87 45.89,-70.44 70,-167.98 70,-281.77 0,-113.8 -24.11,-211.34 -70,-281.78zm-66.88 479.02c-34.23,52.02 -84.78,79.11 -151.66,79.11l-46.67 0 0 -552.71 46.67 0c66.88,0 117.43,26.01 151.66,79.11 30.33,46.6 46.66,114.88 46.66,197.25 0,81.28 -16.33,150.64 -46.66,197.24z"/>
  <polygon id="13" class="fil3" points="8761.76,14170.61 9017.65,14170.61 9017.65,14057.9 8760.99,14057.9 8671.54,14057.9 8671.54,14862.05 8760.99,14862.05 9017.65,14862.05 9017.65,14748.26 8761.76,14748.26 8761.76,14498.99 8972.54,14498.99 8972.54,14385.2 8761.76,14385.2 "/>
  <polygon id="14" class="fil3" points="9447.75,14170.61 9703.64,14170.61 9703.64,14057.9 9446.98,14057.9 9357.53,14057.9 9357.53,14862.05 9446.98,14862.05 9703.64,14862.05 9703.64,14748.26 9447.75,14748.26 9447.75,14498.99 9658.53,14498.99 9658.53,14385.2 9447.75,14385.2 "/>
  <path id="15" class="fil3" d="M10165.63 14178.2c-24.89,-39.02 -56,-69.36 -92.56,-88.87 -37.33,-21.68 -79.33,-31.43 -125.99,-31.43l-46.67 0 -90.22 0 0 804.15 30.33 0 106.56 0c46.66,0 88.66,-10.84 125.99,-31.43 36.56,-19.51 67.67,-49.85 92.56,-88.87 45.89,-70.44 70,-167.98 70,-281.77 0,-113.8 -24.11,-211.34 -70,-281.78zm-66.89 479.02c-34.22,52.02 -84.77,79.11 -151.66,79.11l-46.67 0 0 -552.71 46.67 0c66.89,0 117.44,26.01 151.66,79.11 30.33,46.6 46.66,114.88 46.66,197.25 0,81.28 -16.33,150.64 -46.66,197.24z"/>
  <path id="16" class="fil3" d="M10543.62 14862.05c54.45,0 105,-22.76 143.11,-63.94 21.78,-23.84 38.89,-53.11 51.34,-86.7 12.44,-36.85 19.44,-78.03 19.44,-122.47l0 -531.04 -90.99 0 0 531.04c0,47.69 -11.67,84.54 -35,109.46 -22.56,23.84 -54.45,37.93 -87.9,37.93 -34.21,0 -66.11,-14.09 -87.88,-37.93 -23.34,-24.92 -35.78,-61.77 -35.78,-109.46l0 -531.04 -90.22 0 0 531.04c0,44.44 6.22,85.62 19.44,122.47 11.67,33.59 28.78,62.86 51.34,86.7 38.1,41.18 88.66,63.94 143.1,63.94z"/>
  <path id="17" class="fil3" d="M11296.5 14624.71c-6.22,10.83 -12.44,20.59 -19.44,30.34 -37.33,52.02 -87.11,81.28 -140,81.28 -52.88,0 -102.66,-29.26 -140,-81.28 -37.33,-52.02 -58.33,-121.38 -58.33,-195.07 0,-73.7 21,-143.06 58.33,-195.08 37.34,-53.11 87.12,-81.28 140,-81.28 46.67,0 90.22,21.67 125.22,61.77l0 -148.47c-3.89,-2.17 -8.55,-5.42 -12.44,-7.59 -35.78,-21.68 -73.89,-31.43 -112.78,-31.43 -38.89,0 -77,9.75 -112,31.43 -35,19.51 -65.33,48.77 -91.77,85.62 -26.45,36.84 -47.45,80.19 -62.22,127.88 -14.79,49.85 -22.56,102.96 -22.56,157.15 0,54.18 7.77,107.29 22.56,156.06 14.77,48.77 35.77,91.03 62.22,127.88 26.44,36.85 56.77,66.11 91.77,86.7 35,20.59 73.11,31.43 112,31.43 38.89,0 77,-10.84 112.78,-31.43 16.33,-9.75 31.88,-21.67 46.66,-34.68l0 -171.23z"/>
  <path id="18" class="fil3" d="M11754.61 14862.05l98.78 0 -250.44 -841 -251.23 841 99.56 0 49 -172.32 205.33 0 49 172.32zm-221.66 -285.03l70 -244.93 70 244.93 -140 0z"/>
  <path id="19" class="fil3" d="M12318.49 14624.71c-6.22,10.83 -12.44,20.59 -19.44,30.34 -37.33,52.02 -87.11,81.28 -140,81.28 -52.88,0 -102.66,-29.26 -140,-81.28 -37.33,-52.02 -58.33,-121.38 -58.33,-195.07 0,-73.7 21,-143.06 58.33,-195.08 37.34,-53.11 87.12,-81.28 140,-81.28 46.67,0 90.22,21.67 125.22,61.77l0 -148.47c-3.89,-2.17 -8.55,-5.42 -12.44,-7.59 -35.78,-21.68 -73.89,-31.43 -112.78,-31.43 -38.89,0 -77,9.75 -112,31.43 -35,19.51 -65.33,48.77 -91.77,85.62 -26.45,36.84 -47.45,80.19 -62.22,127.88 -14.79,49.85 -22.56,102.96 -22.56,157.15 0,54.18 7.77,107.29 22.56,156.06 14.77,48.77 35.77,91.03 62.22,127.88 26.44,36.85 56.77,66.11 91.77,86.7 35,20.59 73.11,31.43 112,31.43 38.89,0 77,-10.84 112.78,-31.43 16.33,-9.75 31.88,-21.67 46.66,-34.68l0 -171.23z"/>
  <polygon id="20" class="fil3" points="12511.38,14862.05 12511.38,14057.9 12421.16,14057.9 12421.16,14862.05 "/>
  <path id="21" class="fil3" d="M12901.05 14862.05c38.89,0 76.99,-10.84 112.77,-31.43 34.22,-20.59 64.56,-49.85 91.78,-86.7 26.44,-36.85 46.66,-79.11 61.44,-127.88 14.78,-48.77 22.55,-101.88 22.55,-156.06 0,-54.19 -7.77,-107.3 -22.55,-157.15 -14.78,-47.69 -35,-89.95 -61.44,-127.88 -27.22,-36.85 -57.56,-65.03 -91.78,-85.62 -35.78,-20.59 -73.88,-31.43 -112.77,-31.43 -38.89,0 -77,10.84 -112,31.43 -35,20.59 -65.34,48.77 -91.78,85.62 -26.44,37.93 -47.45,80.19 -62.22,127.88 -14.78,49.85 -22.56,102.96 -22.56,157.15 0,54.18 7.78,107.29 22.56,156.06 14.77,48.77 35.78,91.03 62.22,127.88 26.44,36.85 56.78,66.11 91.78,86.7 35,20.59 73.11,31.43 112,31.43zm0 -678.43c52.88,0 102.66,29.26 139.99,81.28 37.34,52.02 58.34,121.38 58.34,195.08 0,73.69 -21,143.05 -58.34,195.07 -37.33,52.02 -87.11,81.28 -139.99,81.28 -52.89,0 -102.67,-29.26 -140,-81.28 -37.34,-52.02 -58.33,-121.38 -58.33,-195.07 0,-73.7 20.99,-143.06 58.33,-195.08 37.33,-52.02 87.11,-81.28 140,-81.28zm-24.89 -212.42l54.44 0 80.89 -126.8 -80.89 0 -54.44 126.8z"/>
  <polygon id="22" class="fil3" points="13744.92,14898.9 13744.92,14057.9 13653.92,14057.9 13653.92,14573.77 13291.48,14019.97 13291.48,14862.05 13381.7,14862.05 13381.7,14345.1 "/>
  <polygon id="23" class="fil3" points="14641.68,14862.05 14641.68,14021.05 14370.24,14584.61 14098.8,14021.05 14098.8,14862.05 14189.02,14862.05 14189.02,14435.05 14370.24,14810.03 14550.68,14435.05 14550.68,14862.05 "/>
  <path id="24" class="fil3" d="M14852.46 14170.61l255.88 0 0 -112.71 -256.66 0 -89.45 0 0 804.15 89.45 0 256.66 0 0 -113.79 -255.88 0 0 -249.27 210.77 0 0 -113.79 -210.77 0 0 -214.59zm23.33 -199.41l54.44 0 81.67 -126.8 -81.67 0 -54.44 126.8z"/>
  <path id="25" class="fil3" d="M15570.33 14178.2c-24.89,-39.02 -56,-69.36 -92.55,-88.87 -37.34,-21.68 -79.33,-31.43 -126,-31.43l-46.66 0 -90.23 0 0 804.15 30.34 0 106.55 0c46.67,0 88.66,-10.84 126,-31.43 36.55,-19.51 67.66,-49.85 92.55,-88.87 45.89,-70.44 70,-167.98 70,-281.77 0,-113.8 -24.11,-211.34 -70,-281.78zm-66.88 479.02c-34.23,52.02 -84.78,79.11 -151.67,79.11l-46.66 0 0 -552.71 46.66 0c66.89,0 117.44,26.01 151.67,79.11 30.32,46.6 46.66,114.88 46.66,197.25 0,81.28 -16.34,150.64 -46.66,197.24z"/>
  <polygon id="26" class="fil3" points="15830.11,14862.05 15830.11,14057.9 15739.89,14057.9 15739.89,14862.05 "/>
  <path id="27" class="fil3" d="M16373.77 14624.71c-6.22,10.83 -12.45,20.59 -19.44,30.34 -37.34,52.02 -87.11,81.28 -140,81.28 -52.89,0 -102.66,-29.26 -140,-81.28 -37.34,-52.02 -58.33,-121.38 -58.33,-195.07 0,-73.7 20.99,-143.06 58.33,-195.08 37.34,-53.11 87.11,-81.28 140,-81.28 46.67,0 90.22,21.67 125.22,61.77l0 -148.47c-3.89,-2.17 -8.55,-5.42 -12.44,-7.59 -35.79,-21.68 -73.89,-31.43 -112.78,-31.43 -38.89,0 -77,9.75 -112,31.43 -35,19.51 -65.34,48.77 -91.77,85.62 -26.45,36.84 -47.45,80.19 -62.23,127.88 -14.78,49.85 -22.55,102.96 -22.55,157.15 0,54.18 7.77,107.29 22.55,156.06 14.78,48.77 35.78,91.03 62.23,127.88 26.43,36.85 56.77,66.11 91.77,86.7 35,20.59 73.11,31.43 112,31.43 38.89,0 76.99,-10.84 112.78,-31.43 16.33,-9.75 31.88,-21.67 46.66,-34.68l0 -171.23z"/>
  <path id="28" class="fil3" d="M16831.87 14862.05l98.78 0 -250.44 -841 -251.22 841 99.56 0 49 -172.32 205.32 0 49 172.32zm-221.66 -285.03l70 -244.93 70 244.93 -140 0z"/>
  <polygon id="29" class="fil3" points="17699.08,14057.9 17594.86,14057.9 17451.76,14333.18 17308.65,14057.9 17203.65,14057.9 17406.64,14441.55 17406.64,14862.05 17496.87,14862.05 17496.87,14441.55 "/>
  <path id="30" class="fil3" d="M18367.96 14178.2c-24.88,-39.02 -56,-69.36 -92.55,-88.87 -37.33,-21.68 -79.33,-31.43 -125.99,-31.43l-46.67 0 -90.23 0 0 804.15 30.34 0 106.56 0c46.66,0 88.66,-10.84 125.99,-31.43 36.55,-19.51 67.67,-49.85 92.55,-88.87 45.89,-70.44 70,-167.98 70,-281.77 0,-113.8 -24.11,-211.34 -70,-281.78zm-66.88 479.02c-34.23,52.02 -84.78,79.11 -151.66,79.11l-46.67 0 0 -552.71 46.67 0c66.88,0 117.43,26.01 151.66,79.11 30.33,46.6 46.66,114.88 46.66,197.25 0,81.28 -16.33,150.64 -46.66,197.24z"/>
  <polygon id="31" class="fil3" points="18627.74,14170.61 18883.63,14170.61 18883.63,14057.9 18626.96,14057.9 18537.52,14057.9 18537.52,14862.05 18626.96,14862.05 18883.63,14862.05 18883.63,14748.26 18627.74,14748.26 18627.74,14498.99 18838.51,14498.99 18838.51,14385.2 18627.74,14385.2 "/>
  <path id="32" class="fil3" d="M19238.28 14571.6c31.11,-15.17 52.9,-40.1 66.9,-61.77 30.32,-46.6 46.66,-111.63 46.66,-185.32 0,-74.78 -16.34,-139.81 -46.66,-186.41 -23.34,-36.85 -67.67,-80.2 -143.89,-80.2l-94.89 0 -76.22 0 0 804.15 90.22 0 0 -272.02 66.11 0 145.44 272.02 101.89 0 -155.56 -290.45zm-157.88 -94.28l0 -305.63 80.89 0c37.33,0 65.33,14.09 83.22,42.27 21.78,32.51 25.67,78.03 25.67,110.55 0,31.42 -3.89,76.94 -25.67,109.45 -17.89,28.18 -45.89,43.36 -83.22,43.36l-80.89 0z"/>
  <polygon id="33" class="fil3" points="19554.83,14170.61 19810.72,14170.61 19810.72,14057.9 19554.06,14057.9 19464.61,14057.9 19464.61,14862.05 19554.06,14862.05 19810.72,14862.05 19810.72,14748.26 19554.83,14748.26 19554.83,14498.99 19765.61,14498.99 19765.61,14385.2 19554.83,14385.2 "/>
  <path id="34" class="fil3" d="M20313.93 14624.71c-6.22,10.83 -12.44,20.59 -19.44,30.34 -37.33,52.02 -87.11,81.28 -140,81.28 -52.88,0 -102.66,-29.26 -140,-81.28 -37.33,-52.02 -58.33,-121.38 -58.33,-195.07 0,-73.7 21,-143.06 58.33,-195.08 37.34,-53.11 87.12,-81.28 140,-81.28 46.67,0 90.23,21.67 125.23,61.77l0 -148.47c-3.89,-2.17 -8.56,-5.42 -12.45,-7.59 -35.78,-21.68 -73.89,-31.43 -112.78,-31.43 -38.89,0 -77,9.75 -112,31.43 -35,19.51 -65.33,48.77 -91.77,85.62 -26.44,36.84 -47.44,80.19 -62.22,127.88 -14.78,49.85 -22.56,102.96 -22.56,157.15 0,54.18 7.78,107.29 22.56,156.06 14.78,48.77 35.78,91.03 62.22,127.88 26.44,36.85 56.77,66.11 91.77,86.7 35,20.59 73.11,31.43 112,31.43 38.89,0 77,-10.84 112.78,-31.43 16.33,-9.75 31.89,-21.67 46.66,-34.68l0 -171.23z"/>
  <polygon id="35" class="fil3" points="20811.71,14057.9 20721.48,14057.9 20721.48,14401.45 20491.27,14401.45 20491.27,14057.9 20401.04,14057.9 20401.04,14862.05 20491.27,14862.05 20491.27,14515.25 20721.48,14515.25 20721.48,14862.05 20811.71,14862.05 "/>
  <path id="36" class="fil3" d="M21202.14 14862.05c38.89,0 77,-10.84 112.78,-31.43 34.22,-20.59 64.56,-49.85 91.78,-86.7 26.44,-36.85 46.66,-79.11 61.44,-127.88 14.78,-48.77 22.55,-101.88 22.55,-156.06 0,-54.19 -7.77,-107.3 -22.55,-157.15 -14.78,-47.69 -35,-89.95 -61.44,-127.88 -27.22,-36.85 -57.56,-65.03 -91.78,-85.62 -35.78,-20.59 -73.89,-31.43 -112.78,-31.43 -38.88,0 -76.99,10.84 -111.99,31.43 -35,20.59 -65.34,48.77 -91.78,85.62 -26.44,37.93 -47.45,80.19 -62.22,127.88 -14.78,49.85 -22.56,102.96 -22.56,157.15 0,54.18 7.78,107.29 22.56,156.06 14.77,48.77 35.78,91.03 62.22,127.88 26.44,36.85 56.78,66.11 91.78,86.7 35,20.59 73.11,31.43 111.99,31.43zm0 -678.43c52.89,0 102.67,29.26 140,81.28 37.34,52.02 58.34,121.38 58.34,195.08 0,73.69 -21,143.05 -58.34,195.07 -37.33,52.02 -87.11,81.28 -140,81.28 -52.89,0 -102.66,-29.26 -140,-81.28 -37.33,-52.02 -58.33,-121.38 -58.33,-195.07 0,-73.7 21,-143.06 58.33,-195.08 37.34,-52.02 87.11,-81.28 140,-81.28z"/>
  <path id="37" class="fil3" d="M21865.57 14587.86c-8.55,-37.93 -25.66,-73.7 -50.55,-105.13 -12.44,-16.25 -29.55,-39.01 -43.55,-58.52l-96.45 -128.97c-24.1,-32.51 -24.89,-57.44 -21.77,-72.61 4.66,-22.76 21.77,-41.18 42,-46.6 16.33,-4.34 46.66,-4.34 76.22,45.52l70.77 -79.12c-22.55,-37.93 -49,-65.02 -78.55,-81.28 -28,-14.09 -57.56,-17.34 -85.55,-8.67 -25.67,6.5 -49.78,22.76 -69.23,45.52 -21,24.93 -35.77,55.27 -42.77,89.95 -7.01,32.51 -6.22,68.28 1.55,101.87 7.78,34.69 22.56,67.2 44.34,96.46l70.77 93.2c3.11,4.34 45.11,61.78 70.78,95.37 16.33,21.68 34.22,54.19 26.44,91.04 -7,32.51 -31.11,59.61 -60.66,67.19 -17.12,5.42 -35.78,3.25 -52.89,-6.5 -21,-10.84 -40.44,-32.51 -56.78,-62.86l-71.55 78.03c27.22,48.77 59.11,82.37 95.66,102.96 21.78,11.92 45.11,17.34 68.44,17.34 11.67,0 23.34,-1.08 35,-4.34 63.01,-17.34 113.56,-79.11 129.89,-157.14 7.78,-36.85 7,-75.86 -1.56,-112.71z"/>
  <polygon id="38" class="fil3" points="22616.12,14057.9 22525.9,14057.9 22525.9,14401.45 22295.68,14401.45 22295.68,14057.9 22205.46,14057.9 22205.46,14862.05 22295.68,14862.05 22295.68,14515.25 22525.9,14515.25 22525.9,14862.05 22616.12,14862.05 "/>
  <path id="39" class="fil3" d="M22945.12 14862.05c54.44,0 105,-22.76 143.11,-63.94 21.78,-23.84 38.89,-53.11 51.33,-86.7 12.44,-36.85 19.44,-78.03 19.44,-122.47l0 -531.04 -90.99 0 0 531.04c0,47.69 -11.67,84.54 -35,109.46 -22.56,23.84 -54.45,37.93 -87.89,37.93 -34.22,0 -66.11,-14.09 -87.89,-37.93 -23.33,-24.92 -35.78,-61.77 -35.78,-109.46l0 -531.04 -90.21 0 0 531.04c0,44.44 6.22,85.62 19.44,122.47 11.67,33.59 28.78,62.86 51.33,86.7 38.11,41.18 88.67,63.94 143.11,63.94z"/>
  <polygon id="40" class="fil3" points="23817,14862.05 23817,14021.05 23545.56,14584.61 23274.11,14021.05 23274.11,14862.05 23364.34,14862.05 23364.34,14435.05 23545.56,14810.03 23726,14435.05 23726,14862.05 "/>
  <path id="41" class="fil3" d="M24299.21 14862.05l98.78 0 -250.44 -841 -251.22 841 99.56 0 48.99 -172.32 205.33 0 49 172.32zm-221.66 -285.03l70 -244.93 70 244.93 -140 0z"/>
  <polygon id="42" class="fil3" points="24931.54,14898.9 24931.54,14057.9 24840.54,14057.9 24840.54,14573.77 24478.09,14019.97 24478.09,14862.05 24568.32,14862.05 24568.32,14345.1 "/>
  <path id="43" class="fil3" d="M25321.97 14862.05c38.89,0 76.99,-10.84 112.77,-31.43 34.22,-20.59 64.56,-49.85 91.78,-86.7 26.44,-36.85 46.66,-79.11 61.44,-127.88 14.78,-48.77 22.56,-101.88 22.56,-156.06 0,-54.19 -7.78,-107.3 -22.56,-157.15 -14.78,-47.69 -35,-89.95 -61.44,-127.88 -27.22,-36.85 -57.56,-65.03 -91.78,-85.62 -35.78,-20.59 -73.88,-31.43 -112.77,-31.43 -38.89,0 -77,10.84 -112,31.43 -35,20.59 -65.33,48.77 -91.78,85.62 -26.44,37.93 -47.44,80.19 -62.22,127.88 -14.78,49.85 -22.56,102.96 -22.56,157.15 0,54.18 7.78,107.29 22.56,156.06 14.78,48.77 35.78,91.03 62.22,127.88 26.45,36.85 56.78,66.11 91.78,86.7 35,20.59 73.11,31.43 112,31.43zm0 -678.43c52.88,0 102.66,29.26 139.99,81.28 37.34,52.02 58.34,121.38 58.34,195.08 0,73.69 -21,143.05 -58.34,195.07 -37.33,52.02 -87.11,81.28 -139.99,81.28 -52.89,0 -102.67,-29.26 -140,-81.28 -37.33,-52.02 -58.33,-121.38 -58.33,-195.07 0,-73.7 21,-143.06 58.33,-195.08 37.33,-52.02 87.11,-81.28 140,-81.28z"/>
  <path id="44" class="fil3" d="M25985.4 14587.86c-8.56,-37.93 -25.67,-73.7 -50.56,-105.13 -12.44,-16.25 -29.55,-39.01 -43.55,-58.52l-96.45 -128.97c-24.1,-32.51 -24.88,-57.44 -21.77,-72.61 4.67,-22.76 21.77,-41.18 42,-46.6 16.33,-4.34 46.67,-4.34 76.22,45.52l70.78 -79.12c-22.56,-37.93 -49.01,-65.02 -78.56,-81.28 -27.99,-14.09 -57.56,-17.34 -85.55,-8.67 -25.67,6.5 -49.78,22.76 -69.23,45.52 -20.99,24.93 -35.77,55.27 -42.77,89.95 -7,32.51 -6.22,68.28 1.55,101.87 7.78,34.69 22.56,67.2 44.34,96.46l70.77 93.2c3.11,4.34 45.12,61.78 70.78,95.37 16.33,21.68 34.22,54.19 26.44,91.04 -6.99,32.51 -31.11,59.61 -60.66,67.19 -17.11,5.42 -35.78,3.25 -52.89,-6.5 -21,-10.84 -40.44,-32.51 -56.77,-62.86l-71.56 78.03c27.22,48.77 59.11,82.37 95.66,102.96 21.78,11.92 45.11,17.34 68.45,17.34 11.66,0 23.33,-1.08 35,-4.34 63,-17.34 113.55,-79.11 129.88,-157.14 7.78,-36.85 7,-75.86 -1.55,-112.71z"/>
 </g>
</svg>
