<svg xmlns="http://www.w3.org/2000/svg" width="77.597" height="120.645" viewBox="0 0 77.597 120.645">
  <g id="Capa_x0020_1" transform="translate(-5908.96 -908.94)">
    <path id="Trazado_2259" data-name="Trazado 2259" d="M6242.5,2069.35h53.724v-80.43H6242.5Z" transform="translate(-326.942 -1058.617)" fill="#e6e7e8" fill-rule="evenodd"/>
    <g id="_105553322310752" transform="translate(5908.96 908.94)">
      <g id="Grupo_218" data-name="Grupo 218" transform="translate(0 0)">
        <g id="Grupo_217" data-name="Grupo 217">
          <path id="Trazado_2260" data-name="Trazado 2260" d="M5962.534,908.94h-40.757a12.808,12.808,0,0,0-12.817,12.577v95.505a12.687,12.687,0,0,0,12.692,12.563l40.825-.044a12.606,12.606,0,0,0,12.6-12.565l.06-95.466A12.58,12.58,0,0,0,5962.534,908.94Zm-26.267,7.541h11.825a1.885,1.885,0,0,1,0,3.77h-11.825a1.885,1.885,0,0,1,0-3.77Zm-7.105.6a1.952,1.952,0,0,1,2.668,0,1.89,1.89,0,0,1-1.329,3.224,1.931,1.931,0,0,1-1.339-.556,1.9,1.9,0,0,1,0-2.668Zm12.638,108.769a5.641,5.641,0,1,1,5.64-5.641A5.648,5.648,0,0,1,5941.8,1025.849Zm27.482-15.116h-53.724V926.849h53.724Z" transform="translate(-5908.96 -908.94)" fill="#4c4b4d" fill-rule="evenodd"/>
        </g>
      </g>
    </g>
    <path id="Trazado_2261" data-name="Trazado 2261" d="M6797.05,3108.457V3100.6h7.856v7.857Zm6.285-1.571v-4.714h-4.714v4.714Z" transform="translate(-870.522 -2148.308)" fill="#c34043"/>
    <path id="_1" data-name="1" d="M7275.271,3100.6v7.857H7273.7V3100.6Z" transform="translate(-1337.744 -2148.308)" fill="#c34043"/>
    <path id="_2" data-name="2" d="M7434.141,3736.23v7.857h-1.572v-7.857Z" transform="translate(-1493.471 -2771.364)" fill="#c34043"/>
    <path id="_3" data-name="3" d="M7591.45,3744.087v-7.857h7.856v7.857Zm6.285-1.571V3737.8h-4.714v4.714Z" transform="translate(-1649.209 -2771.364)" fill="#c34043"/>
    <path id="_4" data-name="4" d="M8069.672,3736.23v7.857H8068.1v-7.857Z" transform="translate(-2116.43 -2771.364)" fill="#c34043"/>
    <path id="_5" data-name="5" d="M6798.621,4371.86v7.857h-1.571v-7.857Z" transform="translate(-870.522 -3394.421)" fill="#c34043"/>
    <path id="_6" data-name="6" d="M6955.931,4379.717v-7.857h7.856v7.857Zm6.285-1.571v-4.714H6957.5v4.714Z" transform="translate(-1026.26 -3394.421)" fill="#c34043"/>
    <path id="_7" data-name="7" d="M7434.151,4371.86v7.857h-1.571v-7.857Z" transform="translate(-1493.481 -3394.421)" fill="#c34043"/>
    <path id="Trazado_2262" data-name="Trazado 2262" d="M8655.188,2605.716a.762.762,0,0,1-.762-.762v-12.332a6.464,6.464,0,0,0-2.088-4.737,7.5,7.5,0,0,0-5.1-1.981h-.865a7.5,7.5,0,0,0-5.1,1.981,6.465,6.465,0,0,0-2.089,4.737v12.332a.762.762,0,1,1-1.523,0v-12.332a8.076,8.076,0,0,1,2.568-5.844,8.917,8.917,0,0,1,6.143-2.4h.865a8.916,8.916,0,0,1,6.143,2.4,8.076,8.076,0,0,1,2.568,5.844v12.332a.762.762,0,0,1-.762.762Z" transform="translate(-2674.726 -1642.299)" fill="#858789" fill-rule="evenodd"/>
    <circle id="Elipse_308" data-name="Elipse 308" cx="14.478" cy="14.478" r="14.478" transform="translate(5957.602 958.083)" fill="#858789"/>
    <ellipse id="Elipse_309" data-name="Elipse 309" cx="10.668" cy="10.691" rx="10.668" ry="10.691" transform="translate(5961.412 961.847)" fill="#d2d4d5"/>
    <path id="Trazado_2263" data-name="Trazado 2263" d="M8913.087,3861.559v-3.949a1.915,1.915,0,0,0-3.81-.4,1.861,1.861,0,0,0,0,.4v3.95a3.646,3.646,0,0,0-1.788,4.115,3.728,3.728,0,0,0,2.778,2.667,3.79,3.79,0,0,0,4.607-2.741,3.535,3.535,0,0,0-1.788-4.041Z" transform="translate(-2939.102 -2888.267)" fill="#4c4b4d" fill-rule="evenodd"/>
    <rect id="Rectángulo_1517" data-name="Rectángulo 1517" width="53.724" height="3.454" transform="translate(5915.558 926.849)" fill="#aaacae"/>
    <rect id="Rectángulo_1518" data-name="Rectángulo 1518" width="53.724" height="9.027" transform="translate(5915.558 1001.706)" fill="#d2d4d5"/>
    <rect id="Rectángulo_1519" data-name="Rectángulo 1519" width="15.378" height="2.461" rx="1.23" transform="translate(5925.761 933.507)" fill="#00b0f0"/>
    <rect id="Rectángulo_1520" data-name="Rectángulo 1520" width="15.378" height="2.461" rx="1.23" transform="translate(5925.761 936.959)" fill="#00b0f0"/>
    <rect id="Rectángulo_1521" data-name="Rectángulo 1521" width="15.378" height="2.461" rx="1.23" transform="translate(5925.761 940.411)" fill="#00b0f0"/>
  </g>
</svg>
