<?xml version="1.0" encoding="UTF-8"?>
<!DOCTYPE svg PUBLIC "-//W3C//DTD SVG 1.1//EN" "http://www.w3.org/Graphics/SVG/1.1/DTD/svg11.dtd">
<!-- Creator: CorelDRAW -->
<svg xmlns="http://www.w3.org/2000/svg" xml:space="preserve" width="254mm" height="254mm" version="1.1" style="shape-rendering:geometricPrecision; text-rendering:geometricPrecision; image-rendering:optimizeQuality; fill-rule:evenodd; clip-rule:evenodd"
viewBox="0 0 25400 25400"
 xmlns:xlink="http://www.w3.org/1999/xlink"
 xmlns:xodm="http://www.corel.com/coreldraw/odm/2003">
 <defs>
  <style type="text/css">
   <![CDATA[
    .fil0 {fill:white;fill-rule:nonzero}
   ]]>
  </style>
 </defs>
 <g id="Capa_x0020_1">
  <metadata id="CorelCorpID_0Corel-Layer"/>
  <g id="_105553269617888">
   <path class="fil0" d="M16922.51 11186.49l-20.13 0c-274.9,-1.53 -540.49,99.48 -744.99,283.26 -165.52,-458.08 -586.16,-787.37 -1078.85,-787.37 -301.97,2.12 -590.41,126.09 -799.61,344 -192.37,-389.44 -578.28,-653.62 -1021.99,-653.62l-21.43 0c-237.81,-3.66 -469.86,73.69 -657.98,219.2l0 -2776.37c0,-670.93 -522.36,-1216.72 -1157.74,-1216.72 -634.67,0 -1154.32,545.43 -1154.67,1215.89l-5.3 5508.48 -311.74 -378.61c-273.37,-340.35 -675.76,-551.67 -1111.11,-583.58 -426.42,-29.2 -845.88,119.14 -1159.03,410.16l-271.25 224.74c-87.47,72.52 -112.42,196.14 -60.04,296.9l2637.22 5069.24c482.21,926.41 1399.67,1504.33 2394.35,1504.33l2972.03 0.03 0 -2.59c1506.92,0 2728.7,-1307.6 2730.23,-2913.18 0.59,-718.37 -2.12,-1253.8 -1.65,-1687.75 1.53,-1161.03 0.35,-1589.44 -2.59,-2868.55 -1.53,-669.4 -520.13,-1207.89 -1153.74,-1207.89l0.01 0zm670.58 4074.8c-0.47,434.06 -1.18,971.61 -1.88,1689.98 -1.29,1340.1 -1012.93,2432.85 -2255.08,2432.85l-2957.8 0c-814.21,0 -1567.78,-478.57 -1966.53,-1244.74l-2547.51 -4895.24 125.74 -104.9c3.18,-2.59 6.23,-5.65 9.29,-8.35 216.27,-203.56 507.3,-308.1 803.61,-288.67 302.91,23.19 582.4,171.29 771.83,408.75l738.04 898.03c64.51,78.76 171.65,108.31 267.48,74.04 95.83,-34.25 159.87,-125.14 159.87,-226.86l4.35 -6181.18c0.24,-404.75 306.33,-734.04 675.52,-734.04 369.2,0 675.3,329.64 675.3,734.63l0 3726.91c0,12.95 -0.59,26.02 -0.59,39.2 0,5.66 0.59,11.42 0.59,16.96l0 1593.44c0,133.15 107.95,241.11 241.1,241.11 133.15,0 241.1,-107.96 241.1,-241.11l0 -1641.48c0,-390.51 298.33,-695.66 657.98,-695.66l21.44 0.01c369.43,0 676.81,321.99 676.81,726.97l0 1458.07c0,133.15 107.95,241.1 241.1,241.1 133.15,0 241.11,-107.95 241.11,-241.1l0 -1143.97c0,-405.1 292.67,-734.63 664.1,-734.63 369.31,0 661.98,329.4 661.98,734.63l0 1079.21c0,133.15 107.95,241.1 241.1,241.1 133.16,0 241.11,-107.95 241.11,-241.1l0 -584.4c0,-405.1 308.68,-722.15 678.11,-722.15l20.15 0.01c368.49,0 668.82,322.45 669.76,726.26 2.94,1278.17 2.35,1706.11 0.82,2866.32zm0 0z"/>
   <path class="fil0" d="M9499.18 7919.66c133.15,0 241.1,-107.95 241.1,-241.11 3.89,-920.04 750.87,-1663.73 1670.8,-1663.73 920.04,0 1666.91,743.69 1670.79,1663.73 0,133.16 107.96,241.11 241.11,241.11 133.15,0 241.1,-107.95 241.1,-241.11 -4.47,-1185.98 -967.01,-2145 -2153.01,-2145 -1185.87,0 -2148.54,959.01 -2153.01,2145 0,133.16 107.95,241.11 241.1,241.11l0.02 0zm0 0z"/>
  </g>
 </g>
</svg>
