<?xml version="1.0" encoding="UTF-8"?>
<!DOCTYPE svg PUBLIC "-//W3C//DTD SVG 1.1//EN" "http://www.w3.org/Graphics/SVG/1.1/DTD/svg11.dtd">
<!-- Creator: CorelDRAW -->
<svg xmlns="http://www.w3.org/2000/svg" xml:space="preserve" width="150mm" height="150mm" version="1.1" style="shape-rendering:geometricPrecision; text-rendering:geometricPrecision; image-rendering:optimizeQuality; fill-rule:evenodd; clip-rule:evenodd"
viewBox="0 0 15000 15000"
 xmlns:xlink="http://www.w3.org/1999/xlink"
 xmlns:xodm="http://www.corel.com/coreldraw/odm/2003">
 <defs>
  <style type="text/css">
   <![CDATA[
    .fil0 {fill:white;fill-rule:nonzero}
   ]]>
  </style>
 </defs>
 <g id="Capa_x0020_1">
  <metadata id="CorelCorpID_0Corel-Layer"/>
  <path class="fil0" d="M7328.96 11573.98c-628.71,0 -1138.49,509.77 -1138.49,1138.49 0,628.72 509.78,1138.49 1138.49,1138.49 628.72,0 1138.49,-509.77 1138.49,-1138.49 0,-628.72 -509.77,-1138.49 -1138.49,-1138.49zm4044.19 -9481.74c-713.68,-951.57 -2022.1,-1529.31 -3449.45,-1529.31 -458.8,0 -917.59,67.97 -1359.39,186.91 -849.62,220.9 -1563.3,662.71 -2073.07,1274.43 -526.77,628.72 -815.64,1427.36 -849.62,2327.96l2090.06 0c16.99,-526.77 186.92,-951.58 475.79,-1274.43 237.89,-271.88 577.74,-458.8 985.55,-560.75 220.9,-67.97 475.79,-101.95 730.68,-101.95 237.89,0 475.78,33.98 696.68,84.96 441.8,118.94 798.64,322.85 1002.55,611.72 254.89,339.85 305.87,798.64 118.95,1325.41 -169.92,526.76 -543.76,1087.51 -1087.51,1699.23 -50.98,50.98 -135.94,135.94 -237.9,220.9 -526.76,543.76 -968.56,1104.51 -1291.42,1699.24 -492.77,866.61 -747.66,1767.21 -798.64,2718.78 203.91,-118.95 543.76,-237.89 1019.55,-237.89 509.77,0 866.61,135.94 1070.51,237.89 33.99,-645.71 220.91,-1274.43 543.76,-1869.16 254.89,-458.79 594.73,-883.6 1019.54,-1308.41 118.95,-118.95 220.9,-220.9 305.87,-305.86 883.6,-985.56 1410.36,-1937.13 1597.28,-2837.73 169.92,-866.61 -16.99,-1699.24 -509.77,-2361.94z"/>
 </g>
</svg>
