<svg xmlns="http://www.w3.org/2000/svg" xmlns:xlink="http://www.w3.org/1999/xlink" width="125" height="125" viewBox="0 0 125 125">
  <defs>
    <clipPath id="clip-path">
      <rect id="Rectángulo_1476" data-name="Rectángulo 1476" width="70" height="70" transform="translate(218 542)" fill="#fff" stroke="#707070" stroke-width="1"/>
    </clipPath>
  </defs>
  <g id="Grupo_215" data-name="Grupo 215" transform="translate(-37 -522)">
    <circle id="Elipse_285" data-name="Elipse 285" cx="62.5" cy="62.5" r="62.5" transform="translate(37 522)" fill="#c6c6c6"/>
    <circle id="Elipse_289" data-name="Elipse 289" cx="62.5" cy="62.5" r="62.5" transform="translate(37 522)" fill="#73d2de"/>
    <g id="Enmascarar_grupo_22" data-name="Enmascarar grupo 22" transform="translate(-153 8)" clip-path="url(#clip-path)">
      <g id="ellipsis" transform="translate(218 568.25)">
        <g id="keyboard-control">
          <path id="Trazado_2140" data-name="Trazado 2140" d="M8.75,31.875a8.75,8.75,0,1,0,8.75,8.75A8.776,8.776,0,0,0,8.75,31.875Zm52.5,0A8.75,8.75,0,1,0,70,40.625,8.776,8.776,0,0,0,61.25,31.875Zm-26.25,0a8.75,8.75,0,1,0,8.75,8.75A8.776,8.776,0,0,0,35,31.875Z" transform="translate(0 -31.875)"/>
        </g>
      </g>
    </g>
  </g>
</svg>
