<?xml version="1.0" encoding="UTF-8"?>
<!DOCTYPE svg PUBLIC "-//W3C//DTD SVG 1.1//EN" "http://www.w3.org/Graphics/SVG/1.1/DTD/svg11.dtd">
<!-- Creator: CorelDRAW -->
<svg xmlns="http://www.w3.org/2000/svg" xml:space="preserve" width="100mm" height="80mm" version="1.1" style="shape-rendering:geometricPrecision; text-rendering:geometricPrecision; image-rendering:optimizeQuality; fill-rule:evenodd; clip-rule:evenodd"
viewBox="0 0 10000 8000"
 xmlns:xlink="http://www.w3.org/1999/xlink"
 xmlns:xodm="http://www.corel.com/coreldraw/odm/2003">
 <defs>
  <style type="text/css">
   <![CDATA[
    .str0 {stroke:black;stroke-width:20;stroke-miterlimit:22.9256}
    .fil11 {fill:black}
    .fil1 {fill:#1A1A1A}
    .fil6 {fill:#25A1D0}
    .fil9 {fill:#269A96}
    .fil7 {fill:#2C948B}
    .fil4 {fill:#3294B2}
    .fil8 {fill:#34A79A}
    .fil10 {fill:#4BC6EF}
    .fil5 {fill:#52A6CD}
    .fil3 {fill:#CC9933}
    .fil12 {fill:#FF6600}
    .fil2 {fill:yellow}
    .fil0 {fill:white}
   ]]>
  </style>
 </defs>
 <g id="Capa_x0020_1">
  <metadata id="CorelCorpID_0Corel-Layer"/>
  <path class="fil0" d="M2347.21 3302.92c-143.78,100.89 -239.05,29.66 -528.4,253.66 -548.26,424.38 -482.51,1272.57 78.25,1622.56 383.18,239.18 897.38,162.99 1464.11,162.99 519.82,0 2909.62,33.92 3219.8,-23.87 1142.22,-212.78 1417.9,-1810.85 381.63,-2381.84 -273.61,-150.76 -353.79,-106.69 -642.77,-182.2 -88.45,-166.61 -91.28,-770.37 -722.37,-1124.09 -655.4,-367.34 -1506.42,-171.91 -1892.39,519.25 -201.55,360.87 -191.9,61.58 -638.38,58.49 -283.97,-2 -496.55,140.98 -613.37,306.96 -235.11,333.98 -63.31,465.04 -106.11,788.09z"/>
  <path class="fil1" d="M2347.21 3302.92c42.8,-323.05 -129,-454.11 106.11,-788.09 116.82,-165.98 329.4,-308.96 613.37,-306.96 446.48,3.09 436.83,302.38 638.38,-58.49 385.97,-691.16 1236.99,-886.59 1892.39,-519.25 631.09,353.72 633.92,957.48 722.37,1124.09 288.98,75.51 369.16,31.44 642.77,182.2 1036.27,570.99 760.59,2169.06 -381.63,2381.84 -310.18,57.79 -2699.98,23.87 -3219.8,23.87 -566.73,0 -1080.93,76.19 -1464.11,-162.99 -560.76,-349.99 -626.51,-1198.18 -78.25,-1622.56 289.35,-224 384.62,-152.77 528.4,-253.66zm1452.06 -1692c-42.82,73.54 -88.98,113.43 -161.53,204.09 -53.56,66.96 -104.87,125.62 -142.49,208.88 -197.45,-18.87 -272.49,-68.73 -487.09,-66.4 -674.65,83.25 -932.36,509.42 -921.03,1169.13 -46.78,34.58 -184.7,88.29 -250.62,125.7 -604.63,343.22 -824.82,1126.7 -456.57,1732.89 490.96,808.17 1267.02,550.51 2281.24,612.11l-42.13 67.05c107.74,16.86 72.92,-25.05 82.47,76.57 36.3,-64.46 62.78,-78.67 97.36,-146.93l1298.27 1.15c1.32,-70.98 114.61,-20.28 155.71,-9.73 1065.82,81.49 2057.52,71.28 2502.16,-977.96 202.03,-476.76 82.94,-1044.12 -166.17,-1412.05 -222.39,-328.46 -588.68,-578.15 -1075.77,-662.54l-155.7 -473.09c358.43,-206.14 555.29,-345.55 1024.62,-410.53 569.62,-78.86 441.39,59.19 608.44,87.08 348.53,58.21 280.27,-585.14 -121.05,-310.06 -140.85,96.55 -335.96,-12.16 -776.34,104.32 -167.24,44.24 -311.07,96.14 -456.74,165.8 -162.3,77.66 -246.67,173.65 -391.14,204.04 -281.43,-324.62 -544.67,-595.46 -1089.56,-674.3 -280.52,-40.59 -553.19,-19.59 -803.69,70.95 -297.63,107.58 -457.4,285.84 -552.65,313.83z"/>
  <path class="fil2" d="M3701.52 5740.94c-71.71,105.28 -74.86,58.02 -114.07,185.53l736.35 4.36c12.79,227.58 -246.41,811.55 -280.71,1097.4 97.72,-116.66 996.93,-1295.74 1054.06,-1433.07l-1298.27 -1.15c-34.58,68.26 -61.06,82.47 -97.36,146.93z"/>
  <path class="fil3" d="M5097.15 5595.15c-57.13,137.33 -956.34,1316.42 -1054.06,1433.07 34.3,-285.83 293.5,-869.8 280.71,-1097.39l-736.35 -4.37c57.86,-121.95 139.72,-227.18 211.43,-332.45 -76.62,-1.06 -77.97,-7.78 -97.41,-2.08 -6.17,1.81 -31.91,-5.69 -39.51,2.38 -30.18,32.03 -14.22,28.71 -42.91,70.05 -77.54,85.93 -224.75,316.58 -271.65,358.11 178.12,50.24 613.33,12.85 829.06,24.51 -2.37,94.57 -363.9,1387.9 -404.41,1458.24 36.73,85.2 -19.16,74.77 72.38,21.34 17.68,-99.8 89.88,-143.66 180,-269.73l413.61 -556.22c88.38,-109.56 126.14,-178.43 219.89,-295.02 98.62,-124.83 192.62,-265.65 294.38,-396.94 100.24,-129.31 233.84,-281.99 300.55,-423.21 -41.1,-10.57 -154.39,-61.25 -155.71,9.71z"/>
  <path class="fil4" d="M6047.37 405.4c68.6,53.45 136.88,37.8 243.84,39.89 -75.91,131.36 -209.27,176.77 -241.84,305.66 80.02,13.78 114.55,12.75 194.74,12.91 116.89,0.23 115.88,7.39 176.26,-35.22 -27.86,-19.1 -6.07,-16.9 -61.48,-29.42l-190.48 -20.41c75.1,-45.15 230.74,-191.57 251.46,-297.56 -113.21,-5.74 -290.32,-29.93 -372.5,24.15z"/>
  <path class="fil5" d="M6483.06 581.7c31.67,28.83 -49.32,14.79 83.15,48.16 93.41,23.55 46.16,-1.27 61.95,-12.06 -69.15,108.23 -117.5,95.62 -144.92,199 97.5,49.69 169.98,30.85 280.96,24.25 -23.84,-74.51 -9.92,-35.59 -75.54,-83.36l-36.22 -29.05c76.12,-69.01 99.58,-68.66 115.09,-176.54 -126.2,-10.19 -198.02,-42.12 -284.47,29.6z"/>
  <path class="fil6" d="M6184.92 873.47l91.32 90.25c-76.09,74.53 -72.45,33.32 -89.56,143.53l233.38 -0.86c-34.99,-72.81 -14.18,-17.46 -114.06,-89.35 75.03,-74.79 79.89,-38.63 116.07,-149.31l-237.15 5.74z"/>
  <path class="fil7" d="M2738.38 1387.94c40.11,51.32 -40.93,7.63 86.23,101.46 223.04,164.58 119.63,197.66 272.56,236 -46.72,-158.63 -172.71,-298.95 -358.79,-337.46z"/>
  <path class="fil8" d="M3655.46 1513.71c74.64,-89.02 30.11,-142.4 62.16,-239.23 23.44,-70.81 51.52,-83.09 77.66,-170.56 -158.24,21.67 -208.89,271.43 -139.82,409.79z"/>
  <path class="fil9" d="M3321.16 1678.61l68.93 -6.89 -103.55 -347.83 -43.1 -87.08c-14.03,23.58 -47.41,-37.58 -21.58,113.12 14.73,85.9 91.85,204.03 99.3,328.68z"/>
  <g id="_105553350752416">
   <g>
    <g>
     <path class="fil10" d="M7725.42 1133.78c-71.84,0 -130.28,58.25 -130.28,129.81 0,71.59 58.44,129.87 130.28,129.87 71.86,0 130.3,-58.28 130.3,-129.87 0,-71.56 -58.45,-129.81 -130.3,-129.81z"/>
    </g>
   </g>
   <g>
    <g>
     <path class="fil10" d="M8043.27 956.91c-84.81,-84.77 -197.71,-131.47 -317.85,-131.47 -119.68,0 -232.27,46.39 -317.06,130.63 -34.25,34.08 -34.31,89.6 -0.14,123.74 16.59,16.62 38.69,25.75 62.21,25.75 23.41,0 45.42,-9.08 61.99,-25.56 51.61,-51.28 120.15,-79.53 193,-79.53 73.13,0 141.86,28.43 193.49,80.02 16.6,16.57 38.68,25.72 62.18,25.72 23.43,0 45.43,-9.08 62.02,-25.55 34.29,-34.09 34.35,-89.59 0.16,-123.75z"/>
    </g>
   </g>
   <g>
    <g>
     <path class="fil10" d="M8451.58 549.95c-193.9,-193.43 -451.81,-299.93 -726.16,-299.93 -273.98,0 -531.63,106.25 -725.48,299.22 -34.24,34.08 -34.27,89.6 -0.05,123.74 16.59,16.54 38.65,25.63 62.12,25.63 23.46,0 45.49,-9.05 62.08,-25.58 160.68,-159.93 374.23,-248.03 601.33,-248.03 227.43,0 441.19,88.28 601.91,248.64 16.58,16.54 38.68,25.67 62.14,25.67 23.45,0 45.48,-9.1 62.05,-25.6 34.26,-34.11 34.3,-89.66 0.06,-123.76z"/>
    </g>
   </g>
   <g>
    <g>
     <path class="fil10" d="M8242.25 758.53c-138.02,-137.71 -321.57,-213.54 -516.83,-213.54 -194.91,0 -378.18,75.6 -516.09,212.82 -16.61,16.51 -25.75,38.48 -25.78,61.86 0,23.37 9.1,45.36 25.69,61.89 16.58,16.55 38.65,25.68 62.12,25.68 23.44,0 45.47,-9.1 62.08,-25.58 104.77,-104.23 243.98,-161.65 391.98,-161.65 148.3,0 287.71,57.62 392.54,162.21 16.61,16.57 38.67,25.7 62.15,25.7 23.45,0 45.5,-9.11 62.06,-25.61 16.58,-16.51 25.75,-38.48 25.76,-61.86 0.02,-23.39 -9.1,-45.36 -25.68,-61.92z"/>
    </g>
   </g>
   <g>
   </g>
   <g>
   </g>
   <g>
   </g>
   <g>
   </g>
   <g>
   </g>
   <g>
   </g>
   <g>
   </g>
   <g>
   </g>
   <g>
   </g>
   <g>
   </g>
   <g>
   </g>
   <g>
   </g>
   <g>
   </g>
   <g>
   </g>
   <g>
   </g>
  </g>
  <circle class="fil11 str0" cx="3884.02" cy="3165.91" r="125.79"/>
  <circle class="fil11 str0" cx="5255.17" cy="3165.91" r="125.79"/>
  <rect class="fil11 str0" x="4370.29" y="4444.1" width="671.69" height="107.56"/>
  <g id="_105553350774304">
   <g>
    <g>
     <path class="fil12" d="M8768.72 1244.56l-246.28 -426.57c-13.7,-23.72 -38.22,-37.88 -65.62,-37.88 -27.39,0 -51.91,14.16 -65.61,37.88l-246.28 426.57c-13.69,23.72 -13.69,52.04 0,75.76 13.7,23.72 38.23,37.88 65.62,37.88l492.55 0c27.39,0 51.92,-14.16 65.62,-37.88 13.69,-23.72 13.69,-52.04 0,-75.76zm-32.69 56.89c-6.88,11.9 -19.19,19.01 -32.93,19.01l-492.55 0c-13.75,0 -26.06,-7.11 -32.93,-19.01 -6.87,-11.9 -6.87,-26.11 0,-38.02l246.28 -426.56c6.87,-11.91 19.18,-19.01 32.93,-19.01 13.74,0 26.05,7.1 32.92,19.01l246.28 426.56c6.87,11.91 6.87,26.12 0,38.02z"/>
    </g>
   </g>
   <g>
    <g>
     <rect class="fil12" x="8437.95" y="968.49" width="37.75" height="188.74"/>
    </g>
   </g>
   <g>
    <g>
     <path class="fil12" d="M8456.82 1194.99c-13.87,0 -25.16,11.29 -25.16,25.17 0,13.87 11.29,25.16 25.16,25.16 13.88,0 25.17,-11.29 25.17,-25.16 0,-13.88 -11.29,-25.17 -25.17,-25.17z"/>
    </g>
   </g>
   <g>
   </g>
   <g>
   </g>
   <g>
   </g>
   <g>
   </g>
   <g>
   </g>
   <g>
   </g>
   <g>
   </g>
   <g>
   </g>
   <g>
   </g>
   <g>
   </g>
   <g>
   </g>
   <g>
   </g>
   <g>
   </g>
   <g>
   </g>
   <g>
   </g>
  </g>
 </g>
</svg>
