<svg xmlns="http://www.w3.org/2000/svg" width="20.029" height="17.003" viewBox="0 0 20.029 17.003">
  <g id="weight-balance" transform="translate(0 -34.75)">
    <g id="Grupo_193" data-name="Grupo 193" transform="translate(0 34.75)">
      <path id="Trazado_2223" data-name="Trazado 2223" d="M21.214,50.314H19.886V38.139h5.6L23.113,41.9a.408.408,0,0,0,.691.436l2.057-3.264,2.057,3.264a.408.408,0,0,0,.691-.436l-2.371-3.763h.03a.633.633,0,1,0,0-1.266H21.61a2.072,2.072,0,0,0-1.106-.81,1.441,1.441,0,0,0-2.871,0,2.072,2.072,0,0,0-1.105.81H11.871a.633.633,0,1,0,0,1.266h.03L9.529,41.9a.408.408,0,0,0,.691.436l2.057-3.264,2.057,3.264a.408.408,0,0,0,.691-.436l-2.371-3.763h5.6V50.314H16.924a1.44,1.44,0,0,0-1.44,1.44h7.17A1.44,1.44,0,0,0,21.214,50.314Z" transform="translate(-9.054 -34.75)"/>
      <path id="Trazado_2224" data-name="Trazado 2224" d="M6.228,223.359H.218a.218.218,0,0,0-.218.218,3.223,3.223,0,0,0,6.446,0A.218.218,0,0,0,6.228,223.359Z" transform="translate(0 -215.147)"/>
      <path id="Trazado_2225" data-name="Trazado 2225" d="M318.193,223.359h-6.01a.218.218,0,0,0-.218.218,3.223,3.223,0,0,0,6.446,0A.218.218,0,0,0,318.193,223.359Z" transform="translate(-298.381 -215.147)"/>
    </g>
  </g>
</svg>
