<?xml version="1.0" encoding="UTF-8"?>
<!DOCTYPE svg PUBLIC "-//W3C//DTD SVG 1.1//EN" "http://www.w3.org/Graphics/SVG/1.1/DTD/svg11.dtd">
<!-- Creator: CorelDRAW -->
<svg xmlns="http://www.w3.org/2000/svg" xml:space="preserve" width="150mm" height="150mm" version="1.1" style="shape-rendering:geometricPrecision; text-rendering:geometricPrecision; image-rendering:optimizeQuality; fill-rule:evenodd; clip-rule:evenodd"
viewBox="0 0 15000 15000"
 xmlns:xlink="http://www.w3.org/1999/xlink"
 xmlns:xodm="http://www.corel.com/coreldraw/odm/2003"
 enable-background="new 0 0 512 512">
 <defs>
  <style type="text/css">
   <![CDATA[
    .str0 {stroke:white;stroke-width:150;stroke-miterlimit:22.9256}
    .fil0 {fill:none;fill-rule:nonzero}
    .fil1 {fill:#ED2790;fill-rule:nonzero}
   ]]>
  </style>
 </defs>
 <g id="Capa_x0020_1">
  <metadata id="CorelCorpID_0Corel-Layer"/>
  <g id="_105553429049184">
   <path class="fil0 str0" d="M13359.13 9781.36l0 2755.35 -5486.28 0 0 -10090 5486.28 0 0 5368.63m0 1966.02l0 0 0 0z"/>
   <polygon class="fil1 str0" points="11677.01,4188.79 11033.81,4188.79 11033.81,3545.15 10198.2,3545.15 10198.2,4188.79 9554.98,4188.79 9554.98,5024.99 10198.2,5024.99 10198.2,5668.66 11033.81,5668.65 11033.81,5024.98 11677.01,5024.99 "/>
   <polygon class="fil0 str0" points="1640.86,4313.16 7886.45,4313.16 7886.45,12536.71 1640.86,12536.71 "/>
   <polygon class="fil0 str0" points="2915.69,9455.97 6697.67,9455.97 6697.67,11227.01 2915.69,11227.01 "/>
   <polygon class="fil0 str0" points="9458.11,8560.18 11773.9,8560.18 11773.9,12553.29 9458.11,12553.29 "/>
  </g>
 </g>
</svg>
