<?xml version="1.0" encoding="UTF-8"?>
<!DOCTYPE svg PUBLIC "-//W3C//DTD SVG 1.1//EN" "http://www.w3.org/Graphics/SVG/1.1/DTD/svg11.dtd">
<!-- Creator: CorelDRAW -->
<svg xmlns="http://www.w3.org/2000/svg" xml:space="preserve" width="71.73mm" height="73.925mm" version="1.1" style="shape-rendering:geometricPrecision; text-rendering:geometricPrecision; image-rendering:optimizeQuality; fill-rule:evenodd; clip-rule:evenodd"
viewBox="0 0 7173 7392.5"
 xmlns:xlink="http://www.w3.org/1999/xlink"
 xmlns:xodm="http://www.corel.com/coreldraw/odm/2003">
 <defs>
  <style type="text/css">
   <![CDATA[
    .fil0 {fill:#7BE898}
    .fil1 {fill:black;fill-rule:nonzero}
   ]]>
  </style>
 </defs>
 <g id="Capa_x0020_1">
  <metadata id="CorelCorpID_0Corel-Layer"/>
  <rect class="fil0" x="-9.99" y="-0.01" width="744.16" height="7392.51"/>
  <g id="_105553251948320">
   <path class="fil1" d="M4823.11 1472.22c-1228.36,0 -2227.71,999.35 -2227.71,2227.71 0,1228.36 999.35,2227.71 2227.71,2227.71 1228.36,0 2227.71,-999.35 2227.71,-2227.71 0,-1228.36 -999.34,-2227.71 -2227.71,-2227.71zm0 4214.58c-545.74,0 -1040.76,-221.21 -1400.19,-578.61 -143.54,-142.72 -265.39,-307.21 -360.26,-487.99 -144.51,-275.29 -226.43,-588.38 -226.43,-920.27 0,-1095.57 891.31,-1986.88 1986.88,-1986.88 519.65,0 993.25,200.62 1347.68,528.37 183.75,169.91 335.5,373.96 444.91,602.03 124.48,259.49 194.28,549.98 194.28,856.47 0,1095.58 -891.3,1986.88 -1986.87,1986.88z"/>
   <circle class="fil1" cx="4095.6" cy="3203.21" r="240.83"/>
   <circle class="fil1" cx="5585.78" cy="3203.21" r="240.83"/>
   <path class="fil1" d="M4818.85 4934.17c465.93,0 912.46,-238.28 1168.12,-633.89l-202.29 -130.71c-234.77,363.28 -664.19,566.02 -1094.2,516.41 -335.09,-38.64 -644.97,-231.7 -828.95,-516.41l-202.28 130.71c222.63,344.53 597.82,578.14 1003.63,624.96 52.1,6 104.12,8.93 155.97,8.93z"/>
  </g>
 </g>
</svg>
