<svg id="search" xmlns="http://www.w3.org/2000/svg" width="21.265" height="21.345" viewBox="0 0 21.265 21.345">
  <g id="Grupo_191" data-name="Grupo 191">
    <path id="Trazado_2221" data-name="Trazado 2221" d="M21.506,16.82l-3.513-3.513a9.692,9.692,0,0,0,1.065-4.258A9.049,9.049,0,1,0,10.009,18.1a9.692,9.692,0,0,0,4.258-1.065l3.513,3.513a2.573,2.573,0,0,0,3.726,0A2.774,2.774,0,0,0,21.506,16.82Zm-11.5-.852a6.92,6.92,0,1,1,6.92-6.92A6.906,6.906,0,0,1,10.009,15.969Z" transform="translate(-0.96)"/>
  </g>
</svg>
